<svg version="1.1" viewBox="0.0 0.0 960.0 720.0" fill="none" stroke="none" stroke-linecap="square" stroke-miterlimit="10" xmlns:xlink="http://www.w3.org/1999/xlink" xmlns="http://www.w3.org/2000/svg"><clipPath id="p.0"><path d="m0 0l960.0 0l0 720.0l-960.0 0l0 -720.0z" clip-rule="nonzero"/></clipPath><g clip-path="url(#p.0)"><path fill="#000000" fill-opacity="0.0" d="m0 0l960.0 0l0 720.0l-960.0 0z" fill-rule="evenodd"/><path fill="#cfe2f3" d="m81.69029 238.48294l172.55643 0l0 44.671906l-172.55643 0z" fill-rule="evenodd"/><path stroke="#000000" stroke-width="1.0" stroke-linejoin="round" stroke-linecap="butt" d="m81.69029 238.48294l172.55643 0l0 44.671906l-172.55643 0z" fill-rule="evenodd"/><path fill="#000000" d="m98.23717 264.19202l1.609375 0.21875q-0.265625 1.65625 -1.359375 2.609375q-1.078125 0.9375 -2.671875 0.9375q-1.984375 0 -3.1875 -1.296875q-1.203125 -1.296875 -1.203125 -3.71875q0 -1.578125 0.515625 -2.75q0.515625 -1.171875 1.578125 -1.75q1.0625 -0.59375 2.3125 -0.59375q1.578125 0 2.578125 0.796875q1.0 0.796875 1.28125 2.265625l-1.59375 0.234375q-0.234375 -0.96875 -0.8125 -1.453125q-0.578125 -0.5 -1.390625 -0.5q-1.234375 0 -2.015625 0.890625q-0.78125 0.890625 -0.78125 2.8125q0 1.953125 0.75 2.84375q0.75 0.875 1.953125 0.875q0.96875 0 1.609375 -0.59375q0.65625 -0.59375 0.828125 -1.828125zm2.40625 -1.296875q0 -2.6875 1.484375 -3.96875q1.25 -1.078125 3.046875 -1.078125q2.0 0 3.265625 1.3125q1.265625 1.296875 1.265625 3.609375q0 1.859375 -0.5625 2.9375q-0.5625 1.0625 -1.640625 1.65625q-1.0625 0.59375 -2.328125 0.59375q-2.03125 0 -3.28125 -1.296875q-1.25 -1.3125 -1.25 -3.765625zm1.6875 0q0 1.859375 0.796875 2.796875q0.8125 0.921875 2.046875 0.921875q1.21875 0 2.03125 -0.921875q0.8125 -0.9375 0.8125 -2.84375q0 -1.796875 -0.8125 -2.71875q-0.8125 -0.921875 -2.03125 -0.921875q-1.234375 0 -2.046875 0.921875q-0.796875 0.90625 -0.796875 2.765625zm9.297592 4.84375l0 -9.671875l1.46875 0l0 1.375q1.0625 -1.59375 3.078125 -1.59375q0.875 0 1.609375 0.3125q0.734375 0.3125 1.09375 0.828125q0.375 0.5 0.515625 1.203125q0.09375 0.453125 0.09375 1.59375l0 5.953125l-1.640625 0l0 -5.890625q0 -1.0 -0.203125 -1.484375q-0.1875 -0.5 -0.671875 -0.796875q-0.484375 -0.296875 -1.140625 -0.296875q-1.046875 0 -1.8125 0.671875q-0.75 0.65625 -0.75 2.515625l0 5.28125l-1.640625 0zm13.953842 -1.46875l0.234375 1.453125q-0.6875 0.140625 -1.234375 0.140625q-0.890625 0 -1.390625 -0.28125q-0.484375 -0.28125 -0.6875 -0.734375q-0.203125 -0.46875 -0.203125 -1.9375l0 -5.578125l-1.203125 0l0 -1.265625l1.203125 0l0 -2.390625l1.625 -0.984375l0 3.375l1.65625 0l0 1.265625l-1.65625 0l0 5.671875q0 0.6875 0.078125 0.890625q0.09375 0.203125 0.28125 0.328125q0.203125 0.109375 0.578125 0.109375q0.265625 0 0.71875 -0.0625zm1.5895538 1.46875l0 -9.671875l1.46875 0l0 1.46875q0.5625 -1.03125 1.03125 -1.359375q0.484375 -0.328125 1.0625 -0.328125q0.828125 0 1.6875 0.53125l-0.5625 1.515625q-0.609375 -0.359375 -1.203125 -0.359375q-0.546875 0 -0.96875 0.328125q-0.421875 0.328125 -0.609375 0.890625q-0.28125 0.875 -0.28125 1.921875l0 5.0625l-1.625 0zm5.618927 -4.84375q0 -2.6875 1.484375 -3.96875q1.25 -1.078125 3.046875 -1.078125q2.0 0 3.265625 1.3125q1.265625 1.296875 1.265625 3.609375q0 1.859375 -0.5625 2.9375q-0.5625 1.0625 -1.640625 1.65625q-1.0625 0.59375 -2.328125 0.59375q-2.03125 0 -3.28125 -1.296875q-1.25 -1.3125 -1.25 -3.765625zm1.6875 0q0 1.859375 0.796875 2.796875q0.8125 0.921875 2.046875 0.921875q1.21875 0 2.03125 -0.921875q0.8125 -0.9375 0.8125 -2.84375q0 -1.796875 -0.8125 -2.71875q-0.8125 -0.921875 -2.03125 -0.921875q-1.234375 0 -2.046875 0.921875q-0.796875 0.90625 -0.796875 2.765625zm9.250717 4.84375l0 -13.359375l1.640625 0l0 13.359375l-1.640625 0zm4.144821 0l0 -13.359375l1.640625 0l0 13.359375l-1.640625 0zm10.816696 -3.109375l1.6875 0.203125q-0.40625 1.484375 -1.484375 2.3125q-1.078125 0.8125 -2.765625 0.8125q-2.125 0 -3.375 -1.296875q-1.234375 -1.3125 -1.234375 -3.671875q0 -2.453125 1.25 -3.796875q1.265625 -1.34375 3.265625 -1.34375q1.9375 0 3.15625 1.328125q1.234375 1.3125 1.234375 3.703125q0 0.15625 0 0.4375l-7.21875 0q0.09375 1.59375 0.90625 2.453125q0.8125 0.84375 2.015625 0.84375q0.90625 0 1.546875 -0.46875q0.640625 -0.484375 1.015625 -1.515625zm-5.390625 -2.65625l5.40625 0q-0.109375 -1.21875 -0.625 -1.828125q-0.78125 -0.953125 -2.03125 -0.953125q-1.125 0 -1.90625 0.765625q-0.765625 0.75 -0.84375 2.015625zm9.125717 5.765625l0 -9.671875l1.46875 0l0 1.46875q0.5625 -1.03125 1.03125 -1.359375q0.484375 -0.328125 1.0625 -0.328125q0.828125 0 1.6875 0.53125l-0.5625 1.515625q-0.609375 -0.359375 -1.203125 -0.359375q-0.546875 0 -0.96875 0.328125q-0.421875 0.328125 -0.609375 0.890625q-0.28125 0.875 -0.28125 1.921875l0 5.0625l-1.625 0z" fill-rule="nonzero"/><path fill="#ffd966" d="m349.72177 238.48294l172.55643 0l0 44.671906l-172.55643 0z" fill-rule="evenodd"/><path stroke="#000000" stroke-width="1.0" stroke-linejoin="round" stroke-linecap="butt" d="m349.72177 238.48294l172.55643 0l0 44.671906l-172.55643 0z" fill-rule="evenodd"/><path fill="#000000" d="m361.7374 267.7389l-2.96875 -9.671875l1.703125 0l1.53125 5.578125l0.578125 2.078125q0.046875 -0.15625 0.5 -2.0l1.546875 -5.65625l1.6875 0l1.4375 5.609375l0.484375 1.84375l0.5625 -1.859375l1.65625 -5.59375l1.59375 0l-3.03125 9.671875l-1.703125 0l-1.53125 -5.796875l-0.375 -1.640625l-1.953125 7.4375l-1.71875 0zm11.082336 -4.84375q0 -2.6875 1.484375 -3.96875q1.25 -1.078125 3.046875 -1.078125q2.0 0 3.265625 1.3125q1.265625 1.296875 1.265625 3.609375q0 1.859375 -0.5625 2.9375q-0.5625 1.0625 -1.640625 1.65625q-1.0625 0.59375 -2.328125 0.59375q-2.03125 0 -3.28125 -1.296875q-1.25 -1.3125 -1.25 -3.765625zm1.6875 0q0 1.859375 0.796875 2.796875q0.8125 0.921875 2.046875 0.921875q1.21875 0 2.03125 -0.921875q0.8125 -0.9375 0.8125 -2.84375q0 -1.796875 -0.8125 -2.71875q-0.8125 -0.921875 -2.03125 -0.921875q-1.234375 0 -2.046875 0.921875q-0.796875 0.90625 -0.796875 2.765625zm9.281952 4.84375l0 -9.671875l1.46875 0l0 1.46875q0.5625 -1.03125 1.03125 -1.359375q0.484375 -0.328125 1.0625 -0.328125q0.828125 0 1.6875 0.53125l-0.5625 1.515625q-0.609375 -0.359375 -1.203125 -0.359375q-0.546875 0 -0.96875 0.328125q-0.421875 0.328125 -0.609375 0.890625q-0.28125 0.875 -0.28125 1.921875l0 5.0625l-1.625 0zm6.228302 0l0 -13.359375l1.640625 0l0 7.625l3.890625 -3.9375l2.109375 0l-3.6875 3.59375l4.0625 6.078125l-2.015625 0l-3.203125 -4.953125l-1.15625 1.125l0 3.828125l-1.640625 0zm15.953125 -3.109375l1.6875 0.203125q-0.40625 1.484375 -1.484375 2.3125q-1.078125 0.8125 -2.765625 0.8125q-2.125 0 -3.375 -1.296875q-1.234375 -1.3125 -1.234375 -3.671875q0 -2.453125 1.25 -3.796875q1.265625 -1.34375 3.265625 -1.34375q1.9375 0 3.15625 1.328125q1.234375 1.3125 1.234375 3.703125q0 0.15625 0 0.4375l-7.21875 0q0.09375 1.59375 0.90625 2.453125q0.8125 0.84375 2.015625 0.84375q0.90625 0 1.546875 -0.46875q0.640625 -0.484375 1.015625 -1.515625zm-5.390625 -2.65625l5.40625 0q-0.109375 -1.21875 -0.625 -1.828125q-0.78125 -0.953125 -2.03125 -0.953125q-1.125 0 -1.90625 0.765625q-0.765625 0.75 -0.84375 2.015625zm9.125732 5.765625l0 -9.671875l1.46875 0l0 1.46875q0.5625 -1.03125 1.03125 -1.359375q0.484375 -0.328125 1.0625 -0.328125q0.828125 0 1.6875 0.53125l-0.5625 1.515625q-0.609375 -0.359375 -1.203125 -0.359375q-0.546875 0 -0.96875 0.328125q-0.421875 0.328125 -0.609375 0.890625q-0.28125 0.875 -0.28125 1.921875l0 5.0625l-1.625 0z" fill-rule="nonzero"/><path fill="#000000" fill-opacity="0.0" d="m167.9685 283.15485l-0.34646606 67.49606" fill-rule="evenodd"/><path stroke="#000000" stroke-width="1.0" stroke-linejoin="round" stroke-linecap="butt" d="m167.9685 283.15485l-0.31565857 61.496155" fill-rule="evenodd"/><path fill="#000000" stroke="#000000" stroke-width="1.0" stroke-linecap="butt" d="m166.00113 344.64252l1.628418 4.546509l1.675003 -4.529541z" fill-rule="evenodd"/><path fill="#ea9999" d="m108.42373 373.08243l0 0c-1.165245 -6.5706787 2.6604843 -13.075256 9.853798 -16.753601c7.1933136 -3.6783142 16.49266 -3.885315 23.951965 -0.5331421l0 0c2.6423187 -3.820465 7.478531 -6.458252 13.045776 -7.115448c5.5672607 -0.65719604 11.211639 0.7433777 15.225845 3.7780457l0 0c2.2509155 -3.4638672 6.670624 -5.791168 11.690796 -6.156006c5.020157 -0.36483765 9.930298 1.2843933 12.988037 4.3624573l0 0c4.0666046 -3.6717224 10.536682 -5.2176514 16.61058 -3.9689026c6.0739136 1.2487793 10.660721 5.067932 11.775681 9.804962l0 0c4.9822845 1.0427551 9.132431 3.6936646 11.378159 7.2677307c2.2457275 3.5740967 2.366745 7.720764 0.3317871 11.368652l0 0c4.9060974 4.899536 6.0537567 11.428101 3.0146942 17.149353c-3.0390625 5.7212524 -9.808273 9.775635 -17.781464 10.6501465c-0.05619812 5.3695984 -3.8940735 10.296661 -10.034348 12.882111c-6.140274 2.5854492 -13.624115 2.425537 -19.566925 -0.41809082l0 0c-2.5313263 6.4310303 -9.656158 11.162903 -18.296295 12.151306c-8.640152 0.9884033 -17.246704 -1.9438782 -22.101303 -7.5299683l0 0c-5.950714 2.7533875 -13.091095 3.5465698 -19.810394 2.2005615c-6.7192993 -1.3459778 -12.451523 -4.717743 -15.903595 -9.354706l0 0c-6.0808945 0.5460205 -11.960274 -1.8714294 -14.72023 -6.0525513c-2.7599564 -4.181122 -1.8129578 -9.23587 2.3710022 -12.655609l0 0c-5.4243164 -2.449707 -8.192123 -7.310791 -6.8601303 -12.04834c1.3319931 -4.737549 6.46196 -8.278046 12.7148285 -8.775238z" fill-rule="evenodd"/><path fill="#000000" fill-opacity="0.0" d="m102.44883 394.15927l0 0c2.5597534 1.1560364 5.516861 1.6804504 8.474297 1.5028076m3.8736038 17.20575c1.2718048 -0.11419678 2.5184097 -0.35601807 3.7076797 -0.7192383m32.00453 7.8730774c-0.89450073 -1.0292969 -1.6434326 -2.129181 -2.2340088 -3.2809143m42.63315 -1.3406067l0 0c0.46150208 -1.1724548 0.76049805 -2.379181 0.89204407 -3.6000366m28.708115 -8.863525c0.059829712 -5.7167664 -4.171814 -10.951111 -10.877319 -13.454712m25.643936 -14.344177c-1.0859222 1.9466858 -2.7437286 3.673523 -4.8434143 5.0451965m-6.865509 -23.682098l0 0c0.18502808 0.7861023 0.2706604 1.5840149 0.25572205 2.3826904m-28.641495 -8.218536l0 0c-1.0144196 0.9159241 -1.8501587 1.9394226 -2.4812164 3.0386963m-22.197845 -1.2455139l0 0c-0.54060364 0.8319092 -0.9442749 1.7122192 -1.2017517 2.620636m-27.070282 0.7168274l0 0c1.5783844 0.70932007 3.0386047 1.5630493 4.348587 2.54245m-38.153923 14.744385l0 0c0.16059875 0.90560913 0.41436005 1.8000488 0.7588959 2.6749573" fill-rule="evenodd"/><path stroke="#000000" stroke-width="1.0" stroke-linejoin="round" stroke-linecap="butt" d="m108.42373 373.08243l0 0c-1.165245 -6.5706787 2.6604843 -13.075256 9.853798 -16.753601c7.1933136 -3.6783142 16.49266 -3.885315 23.951965 -0.5331421l0 0c2.6423187 -3.820465 7.478531 -6.458252 13.045776 -7.115448c5.5672607 -0.65719604 11.211639 0.7433777 15.225845 3.7780457l0 0c2.2509155 -3.4638672 6.670624 -5.791168 11.690796 -6.156006c5.020157 -0.36483765 9.930298 1.2843933 12.988037 4.3624573l0 0c4.0666046 -3.6717224 10.536682 -5.2176514 16.61058 -3.9689026c6.0739136 1.2487793 10.660721 5.067932 11.775681 9.804962l0 0c4.9822845 1.0427551 9.132431 3.6936646 11.378159 7.2677307c2.2457275 3.5740967 2.366745 7.720764 0.3317871 11.368652l0 0c4.9060974 4.899536 6.0537567 11.428101 3.0146942 17.149353c-3.0390625 5.7212524 -9.808273 9.775635 -17.781464 10.6501465c-0.05619812 5.3695984 -3.8940735 10.296661 -10.034348 12.882111c-6.140274 2.5854492 -13.624115 2.425537 -19.566925 -0.41809082l0 0c-2.5313263 6.4310303 -9.656158 11.162903 -18.296295 12.151306c-8.640152 0.9884033 -17.246704 -1.9438782 -22.101303 -7.5299683l0 0c-5.950714 2.7533875 -13.091095 3.5465698 -19.810394 2.2005615c-6.7192993 -1.3459778 -12.451523 -4.717743 -15.903595 -9.354706l0 0c-6.0808945 0.5460205 -11.960274 -1.8714294 -14.72023 -6.0525513c-2.7599564 -4.181122 -1.8129578 -9.23587 2.3710022 -12.655609l0 0c-5.4243164 -2.449707 -8.192123 -7.310791 -6.8601303 -12.04834c1.3319931 -4.737549 6.46196 -8.278046 12.7148285 -8.775238z" fill-rule="evenodd"/><path stroke="#000000" stroke-width="1.0" stroke-linejoin="round" stroke-linecap="butt" d="m102.44883 394.15927l0 0c2.5597534 1.1560364 5.516861 1.6804504 8.474297 1.5028076m3.8736038 17.20575c1.2718048 -0.11419678 2.5184097 -0.35601807 3.7076797 -0.7192383m32.00453 7.8730774c-0.89450073 -1.0292969 -1.6434326 -2.129181 -2.2340088 -3.2809143m42.63315 -1.3406067l0 0c0.46150208 -1.1724548 0.76049805 -2.379181 0.89204407 -3.6000366m28.708115 -8.863525c0.059829712 -5.7167664 -4.171814 -10.951111 -10.877319 -13.454712m25.643936 -14.344177c-1.0859222 1.9466858 -2.7437286 3.673523 -4.8434143 5.0451965m-6.865509 -23.682098l0 0c0.18502808 0.7861023 0.2706604 1.5840149 0.25572205 2.3826904m-28.641495 -8.218536l0 0c-1.0144196 0.9159241 -1.8501587 1.9394226 -2.4812164 3.0386963m-22.197845 -1.2455139l0 0c-0.54060364 0.8319092 -0.9442749 1.7122192 -1.2017517 2.620636m-27.070282 0.7168274l0 0c1.5783844 0.70932007 3.0386047 1.5630493 4.348587 2.54245m-38.153923 14.744385l0 0c0.16059875 0.90560913 0.41436005 1.8000488 0.7588959 2.6749573" fill-rule="evenodd"/><path fill="#000000" d="m138.53 380.74762l0 -13.359375l5.046875 0q1.328125 0 2.03125 0.125q0.96875 0.171875 1.640625 0.640625q0.671875 0.453125 1.078125 1.28125q0.40625 0.828125 0.40625 1.828125q0 1.703125 -1.09375 2.890625q-1.078125 1.171875 -3.921875 1.171875l-3.421875 0l0 5.421875l-1.765625 0zm1.765625 -7.0l3.453125 0q1.71875 0 2.4375 -0.640625q0.71875 -0.640625 0.71875 -1.796875q0 -0.84375 -0.421875 -1.4375q-0.421875 -0.59375 -1.125 -0.78125q-0.4375 -0.125 -1.640625 -0.125l-3.421875 0l0 4.78125zm16.802948 7.0l0 -1.421875q-1.125 1.640625 -3.0625 1.640625q-0.859375 0 -1.609375 -0.328125q-0.734375 -0.328125 -1.09375 -0.828125q-0.359375 -0.5 -0.5 -1.21875q-0.109375 -0.46875 -0.109375 -1.53125l0 -5.984375l1.640625 0l0 5.359375q0 1.28125 0.109375 1.734375q0.15625 0.640625 0.65625 1.015625q0.5 0.375 1.234375 0.375q0.734375 0 1.375 -0.375q0.65625 -0.390625 0.921875 -1.03125q0.265625 -0.65625 0.265625 -1.890625l0 -5.1875l1.640625 0l0 9.671875l-1.46875 0zm5.547592 0l-1.515625 0l0 -13.359375l1.640625 0l0 4.765625q1.046875 -1.296875 2.65625 -1.296875q0.890625 0 1.6875 0.359375q0.796875 0.359375 1.3125 1.015625q0.515625 0.640625 0.796875 1.5625q0.296875 0.921875 0.296875 1.96875q0 2.484375 -1.234375 3.84375q-1.21875 1.359375 -2.953125 1.359375q-1.703125 0 -2.6875 -1.4375l0 1.21875zm-0.015625 -4.90625q0 1.734375 0.484375 2.515625q0.765625 1.265625 2.09375 1.265625q1.078125 0 1.859375 -0.9375q0.78125 -0.9375 0.78125 -2.78125q0 -1.890625 -0.75 -2.796875q-0.75 -0.90625 -1.828125 -0.90625q-1.0625 0 -1.859375 0.9375q-0.78125 0.9375 -0.78125 2.703125zm8.844467 4.90625l0 -13.359375l1.640625 0l0 13.359375l-1.640625 0zm4.191696 -11.46875l0 -1.890625l1.640625 0l0 1.890625l-1.640625 0zm0 11.46875l0 -9.671875l1.640625 0l0 9.671875l-1.640625 0zm10.457321 -3.546875l1.609375 0.21875q-0.265625 1.65625 -1.359375 2.609375q-1.078125 0.9375 -2.671875 0.9375q-1.984375 0 -3.1875 -1.296875q-1.203125 -1.296875 -1.203125 -3.71875q0 -1.578125 0.515625 -2.75q0.515625 -1.171875 1.578125 -1.75q1.0625 -0.59375 2.3125 -0.59375q1.578125 0 2.578125 0.796875q1.0 0.796875 1.28125 2.265625l-1.59375 0.234375q-0.234375 -0.96875 -0.8125 -1.453125q-0.578125 -0.5 -1.390625 -0.5q-1.234375 0 -2.015625 0.890625q-0.78125 0.890625 -0.78125 2.8125q0 1.953125 0.75 2.84375q0.75 0.875 1.953125 0.875q0.96875 0 1.609375 -0.59375q0.65625 -0.59375 0.828125 -1.828125z" fill-rule="nonzero"/><path fill="#000000" d="m131.07115 402.74762l0 -9.671875l1.46875 0l0 1.375q1.0625 -1.59375 3.078125 -1.59375q0.875 0 1.609375 0.3125q0.734375 0.3125 1.09375 0.828125q0.375 0.5 0.515625 1.203125q0.09375 0.453125 0.09375 1.59375l0 5.953125l-1.640625 0l0 -5.890625q0 -1.0 -0.203125 -1.484375q-0.1875 -0.5 -0.671875 -0.796875q-0.484375 -0.296875 -1.140625 -0.296875q-1.046875 0 -1.8125 0.671875q-0.75 0.65625 -0.75 2.515625l0 5.28125l-1.640625 0zm17.000717 -3.109375l1.6875 0.203125q-0.40625 1.484375 -1.484375 2.3125q-1.078125 0.8125 -2.765625 0.8125q-2.125 0 -3.375 -1.296875q-1.234375 -1.3125 -1.234375 -3.671875q0 -2.453125 1.25 -3.796875q1.265625 -1.34375 3.265625 -1.34375q1.9375 0 3.15625 1.328125q1.234375 1.3125 1.234375 3.703125q0 0.15625 0 0.4375l-7.21875 0q0.09375 1.59375 0.90625 2.453125q0.8125 0.84375 2.015625 0.84375q0.90625 0 1.546875 -0.46875q0.640625 -0.484375 1.015625 -1.515625zm-5.390625 -2.65625l5.40625 0q-0.109375 -1.21875 -0.625 -1.828125q-0.78125 -0.953125 -2.03125 -0.953125q-1.125 0 -1.90625 0.765625q-0.765625 0.75 -0.84375 2.015625zm12.719467 4.296875l0.234375 1.453125q-0.6875 0.140625 -1.234375 0.140625q-0.890625 0 -1.390625 -0.28125q-0.484375 -0.28125 -0.6875 -0.734375q-0.203125 -0.46875 -0.203125 -1.9375l0 -5.578125l-1.203125 0l0 -1.265625l1.203125 0l0 -2.390625l1.625 -0.984375l0 3.375l1.65625 0l0 1.265625l-1.65625 0l0 5.671875q0 0.6875 0.078125 0.890625q0.09375 0.203125 0.28125 0.328125q0.203125 0.109375 0.578125 0.109375q0.265625 0 0.71875 -0.0625zm3.3864288 1.46875l-2.96875 -9.671875l1.703125 0l1.53125 5.578125l0.578125 2.078125q0.046875 -0.15625 0.5 -2.0l1.546875 -5.65625l1.6875 0l1.4375 5.609375l0.484375 1.84375l0.5625 -1.859375l1.65625 -5.59375l1.59375 0l-3.03125 9.671875l-1.703125 0l-1.53125 -5.796875l-0.375 -1.640625l-1.953125 7.4375l-1.71875 0zm11.082321 -4.84375q0 -2.6875 1.484375 -3.96875q1.25 -1.078125 3.046875 -1.078125q2.0 0 3.265625 1.3125q1.265625 1.296875 1.265625 3.609375q0 1.859375 -0.5625 2.9375q-0.5625 1.0625 -1.640625 1.65625q-1.0625 0.59375 -2.328125 0.59375q-2.03125 0 -3.28125 -1.296875q-1.25 -1.3125 -1.25 -3.765625zm1.6875 0q0 1.859375 0.796875 2.796875q0.8125 0.921875 2.046875 0.921875q1.21875 0 2.03125 -0.921875q0.8125 -0.9375 0.8125 -2.84375q0 -1.796875 -0.8125 -2.71875q-0.8125 -0.921875 -2.03125 -0.921875q-1.234375 0 -2.046875 0.921875q-0.796875 0.90625 -0.796875 2.765625zm9.281967 4.84375l0 -9.671875l1.46875 0l0 1.46875q0.5625 -1.03125 1.03125 -1.359375q0.484375 -0.328125 1.0625 -0.328125q0.828125 0 1.6875 0.53125l-0.5625 1.515625q-0.609375 -0.359375 -1.203125 -0.359375q-0.546875 0 -0.96875 0.328125q-0.421875 0.328125 -0.609375 0.890625q-0.28125 0.875 -0.28125 1.921875l0 5.0625l-1.625 0zm6.228302 0l0 -13.359375l1.640625 0l0 7.625l3.890625 -3.9375l2.109375 0l-3.6875 3.59375l4.0625 6.078125l-2.015625 0l-3.203125 -4.953125l-1.15625 1.125l0 3.828125l-1.640625 0z" fill-rule="nonzero"/><path fill="#000000" fill-opacity="0.0" d="m436.0 283.15485l0 67.49606" fill-rule="evenodd"/><path stroke="#000000" stroke-width="1.0" stroke-linejoin="round" stroke-linecap="butt" d="m436.0 283.15485l0 61.496063" fill-rule="evenodd"/><path fill="#000000" stroke="#000000" stroke-width="1.0" stroke-linecap="butt" d="m434.34827 344.6509l1.6517334 4.5381165l1.6517334 -4.5381165z" fill-rule="evenodd"/><path fill="#ea9999" d="m376.78592 373.0903l0 0c-1.1652222 -6.5706787 2.660492 -13.075256 9.853821 -16.753601c7.1932983 -3.6783142 16.492645 -3.885315 23.951965 -0.5331421l0 0c2.6423035 -3.820465 7.4785156 -6.458252 13.045776 -7.115448c5.5672607 -0.65719604 11.211639 0.7433777 15.22583 3.7780457l0 0c2.2509155 -3.4638672 6.670624 -5.7911377 11.690796 -6.156006c5.020172 -0.36483765 9.930298 1.2843933 12.988037 4.3624573l0 0c4.06662 -3.6717224 10.536682 -5.2176514 16.610596 -3.9689026c6.0739136 1.2487793 10.660706 5.067932 11.775665 9.804962l0 0c4.9823 1.0427551 9.132416 3.6936646 11.378174 7.2677307c2.2457275 3.5740967 2.3667297 7.720764 0.3317871 11.368652l0 0c4.9060974 4.899536 6.0537415 11.428101 3.014679 17.149353c-3.0390625 5.7212524 -9.808258 9.775635 -17.781464 10.6501465c-0.05618286 5.3695984 -3.8940735 10.296661 -10.034332 12.882111c-6.1402893 2.5854492 -13.624115 2.425537 -19.566925 -0.41809082l0 0c-2.5313416 6.4310303 -9.656158 11.162903 -18.296295 12.151306c-8.640167 0.9884033 -17.246704 -1.9438782 -22.101318 -7.5299683l0 0c-5.950714 2.7533875 -13.091095 3.5465698 -19.810394 2.2005615c-6.7192993 -1.3459778 -12.451508 -4.717743 -15.903595 -9.354706l0 0c-6.0808716 0.5460205 -11.960266 -1.8714294 -14.720215 -6.0525513c-2.7599792 -4.181122 -1.8129578 -9.23587 2.3710022 -12.655609l0 0c-5.4243164 -2.449707 -8.192139 -7.310791 -6.860138 -12.04834c1.3320007 -4.737549 6.461975 -8.278046 12.714813 -8.775238z" fill-rule="evenodd"/><path fill="#000000" fill-opacity="0.0" d="m370.81104 394.16714l0 0c2.5597534 1.1560364 5.516876 1.6804504 8.474304 1.5028076m3.8735962 17.20575c1.2717896 -0.11419678 2.518402 -0.35601807 3.707672 -0.7192383m32.004547 7.8730774c-0.89450073 -1.0292969 -1.6434326 -2.129181 -2.2340088 -3.2809143m42.63315 -1.3406067l0 0c0.46148682 -1.1724548 0.76049805 -2.379181 0.8920288 -3.6000366m28.70813 -8.863525c0.059814453 -5.7167664 -4.171814 -10.951111 -10.877319 -13.454712m25.64392 -14.344177c-1.0859375 1.9466858 -2.7437134 3.673523 -4.8434143 5.0451965m-6.865509 -23.682098l0 0c0.18502808 0.7861023 0.2706604 1.5840149 0.2557068 2.3826904m-28.64148 -8.218536l0 0c-1.0144043 0.9159241 -1.8501587 1.9394226 -2.4812012 3.0386963m-22.197845 -1.2455139l0 0c-0.5406189 0.8319092 -0.9442749 1.7122192 -1.2017517 2.620636m-27.070282 0.7168274l0 0c1.5783691 0.70932007 3.0386047 1.5630493 4.348572 2.54245m-38.15393 14.744385l0 0c0.16061401 0.90560913 0.41436768 1.8000488 0.75891113 2.6749573" fill-rule="evenodd"/><path stroke="#000000" stroke-width="1.0" stroke-linejoin="round" stroke-linecap="butt" d="m376.78592 373.0903l0 0c-1.1652222 -6.5706787 2.660492 -13.075256 9.853821 -16.753601c7.1932983 -3.6783142 16.492645 -3.885315 23.951965 -0.5331421l0 0c2.6423035 -3.820465 7.4785156 -6.458252 13.045776 -7.115448c5.5672607 -0.65719604 11.211639 0.7433777 15.22583 3.7780457l0 0c2.2509155 -3.4638672 6.670624 -5.7911377 11.690796 -6.156006c5.020172 -0.36483765 9.930298 1.2843933 12.988037 4.3624573l0 0c4.06662 -3.6717224 10.536682 -5.2176514 16.610596 -3.9689026c6.0739136 1.2487793 10.660706 5.067932 11.775665 9.804962l0 0c4.9823 1.0427551 9.132416 3.6936646 11.378174 7.2677307c2.2457275 3.5740967 2.3667297 7.720764 0.3317871 11.368652l0 0c4.9060974 4.899536 6.0537415 11.428101 3.014679 17.149353c-3.0390625 5.7212524 -9.808258 9.775635 -17.781464 10.6501465c-0.05618286 5.3695984 -3.8940735 10.296661 -10.034332 12.882111c-6.1402893 2.5854492 -13.624115 2.425537 -19.566925 -0.41809082l0 0c-2.5313416 6.4310303 -9.656158 11.162903 -18.296295 12.151306c-8.640167 0.9884033 -17.246704 -1.9438782 -22.101318 -7.5299683l0 0c-5.950714 2.7533875 -13.091095 3.5465698 -19.810394 2.2005615c-6.7192993 -1.3459778 -12.451508 -4.717743 -15.903595 -9.354706l0 0c-6.0808716 0.5460205 -11.960266 -1.8714294 -14.720215 -6.0525513c-2.7599792 -4.181122 -1.8129578 -9.23587 2.3710022 -12.655609l0 0c-5.4243164 -2.449707 -8.192139 -7.310791 -6.860138 -12.04834c1.3320007 -4.737549 6.461975 -8.278046 12.714813 -8.775238z" fill-rule="evenodd"/><path stroke="#000000" stroke-width="1.0" stroke-linejoin="round" stroke-linecap="butt" d="m370.81104 394.16714l0 0c2.5597534 1.1560364 5.516876 1.6804504 8.474304 1.5028076m3.8735962 17.20575c1.2717896 -0.11419678 2.518402 -0.35601807 3.707672 -0.7192383m32.004547 7.8730774c-0.89450073 -1.0292969 -1.6434326 -2.129181 -2.2340088 -3.2809143m42.63315 -1.3406067l0 0c0.46148682 -1.1724548 0.76049805 -2.379181 0.8920288 -3.6000366m28.70813 -8.863525c0.059814453 -5.7167664 -4.171814 -10.951111 -10.877319 -13.454712m25.64392 -14.344177c-1.0859375 1.9466858 -2.7437134 3.673523 -4.8434143 5.0451965m-6.865509 -23.682098l0 0c0.18502808 0.7861023 0.2706604 1.5840149 0.2557068 2.3826904m-28.64148 -8.218536l0 0c-1.0144043 0.9159241 -1.8501587 1.9394226 -2.4812012 3.0386963m-22.197845 -1.2455139l0 0c-0.5406189 0.8319092 -0.9442749 1.7122192 -1.2017517 2.620636m-27.070282 0.7168274l0 0c1.5783691 0.70932007 3.0386047 1.5630493 4.348572 2.54245m-38.15393 14.744385l0 0c0.16061401 0.90560913 0.41436768 1.8000488 0.75891113 2.6749573" fill-rule="evenodd"/><path fill="#000000" d="m406.8922 380.7555l0 -13.359375l5.046875 0q1.328125 0 2.03125 0.125q0.96875 0.171875 1.640625 0.640625q0.671875 0.453125 1.078125 1.28125q0.40625 0.828125 0.40625 1.828125q0 1.703125 -1.09375 2.890625q-1.078125 1.171875 -3.921875 1.171875l-3.421875 0l0 5.421875l-1.765625 0zm1.765625 -7.0l3.453125 0q1.71875 0 2.4375 -0.640625q0.71875 -0.640625 0.71875 -1.796875q0 -0.84375 -0.421875 -1.4375q-0.421875 -0.59375 -1.125 -0.78125q-0.4375 -0.125 -1.640625 -0.125l-3.421875 0l0 4.78125zm16.802948 7.0l0 -1.421875q-1.125 1.640625 -3.0625 1.640625q-0.859375 0 -1.609375 -0.328125q-0.734375 -0.328125 -1.09375 -0.828125q-0.359375 -0.5 -0.5 -1.21875q-0.109375 -0.46875 -0.109375 -1.53125l0 -5.984375l1.640625 0l0 5.359375q0 1.28125 0.109375 1.734375q0.15625 0.640625 0.65625 1.015625q0.5 0.375 1.234375 0.375q0.734375 0 1.375 -0.375q0.65625 -0.390625 0.921875 -1.03125q0.265625 -0.65625 0.265625 -1.890625l0 -5.1875l1.640625 0l0 9.671875l-1.46875 0zm5.547577 0l-1.515625 0l0 -13.359375l1.640625 0l0 4.765625q1.046875 -1.296875 2.65625 -1.296875q0.890625 0 1.6875 0.359375q0.796875 0.359375 1.3125 1.015625q0.515625 0.640625 0.796875 1.5625q0.296875 0.921875 0.296875 1.96875q0 2.484375 -1.234375 3.84375q-1.21875 1.359375 -2.953125 1.359375q-1.703125 0 -2.6875 -1.4375l0 1.21875zm-0.015625 -4.90625q0 1.734375 0.484375 2.515625q0.765625 1.265625 2.09375 1.265625q1.078125 0 1.859375 -0.9375q0.78125 -0.9375 0.78125 -2.78125q0 -1.890625 -0.75 -2.796875q-0.75 -0.90625 -1.828125 -0.90625q-1.0625 0 -1.859375 0.9375q-0.78125 0.9375 -0.78125 2.703125zm8.844482 4.90625l0 -13.359375l1.640625 0l0 13.359375l-1.640625 0zm4.191681 -11.46875l0 -1.890625l1.640625 0l0 1.890625l-1.640625 0zm0 11.46875l0 -9.671875l1.640625 0l0 9.671875l-1.640625 0zm10.457336 -3.546875l1.609375 0.21875q-0.265625 1.65625 -1.359375 2.609375q-1.078125 0.9375 -2.671875 0.9375q-1.984375 0 -3.1875 -1.296875q-1.203125 -1.296875 -1.203125 -3.71875q0 -1.578125 0.515625 -2.75q0.515625 -1.171875 1.578125 -1.75q1.0625 -0.59375 2.3125 -0.59375q1.578125 0 2.578125 0.796875q1.0 0.796875 1.28125 2.265625l-1.59375 0.234375q-0.234375 -0.96875 -0.8125 -1.453125q-0.578125 -0.5 -1.390625 -0.5q-1.234375 0 -2.015625 0.890625q-0.78125 0.890625 -0.78125 2.8125q0 1.953125 0.75 2.84375q0.75 0.875 1.953125 0.875q0.96875 0 1.609375 -0.59375q0.65625 -0.59375 0.828125 -1.828125z" fill-rule="nonzero"/><path fill="#000000" d="m399.43335 402.7555l0 -9.671875l1.46875 0l0 1.375q1.0625 -1.59375 3.078125 -1.59375q0.875 0 1.609375 0.3125q0.734375 0.3125 1.09375 0.828125q0.375 0.5 0.515625 1.203125q0.09375 0.453125 0.09375 1.59375l0 5.953125l-1.640625 0l0 -5.890625q0 -1.0 -0.203125 -1.484375q-0.1875 -0.5 -0.671875 -0.796875q-0.484375 -0.296875 -1.140625 -0.296875q-1.046875 0 -1.8125 0.671875q-0.75 0.65625 -0.75 2.515625l0 5.28125l-1.640625 0zm17.000732 -3.109375l1.6875 0.203125q-0.40625 1.484375 -1.484375 2.3125q-1.078125 0.8125 -2.765625 0.8125q-2.125 0 -3.375 -1.296875q-1.234375 -1.3125 -1.234375 -3.671875q0 -2.453125 1.25 -3.796875q1.265625 -1.34375 3.265625 -1.34375q1.9375 0 3.15625 1.328125q1.234375 1.3125 1.234375 3.703125q0 0.15625 0 0.4375l-7.21875 0q0.09375 1.59375 0.90625 2.453125q0.8125 0.84375 2.015625 0.84375q0.90625 0 1.546875 -0.46875q0.640625 -0.484375 1.015625 -1.515625zm-5.390625 -2.65625l5.40625 0q-0.109375 -1.21875 -0.625 -1.828125q-0.78125 -0.953125 -2.03125 -0.953125q-1.125 0 -1.90625 0.765625q-0.765625 0.75 -0.84375 2.015625zm12.719452 4.296875l0.234375 1.453125q-0.6875 0.140625 -1.234375 0.140625q-0.890625 0 -1.390625 -0.28125q-0.484375 -0.28125 -0.6875 -0.734375q-0.203125 -0.46875 -0.203125 -1.9375l0 -5.578125l-1.203125 0l0 -1.265625l1.203125 0l0 -2.390625l1.625 -0.984375l0 3.375l1.65625 0l0 1.265625l-1.65625 0l0 5.671875q0 0.6875 0.078125 0.890625q0.09375 0.203125 0.28125 0.328125q0.203125 0.109375 0.578125 0.109375q0.265625 0 0.71875 -0.0625zm3.386444 1.46875l-2.96875 -9.671875l1.703125 0l1.53125 5.578125l0.578125 2.078125q0.046875 -0.15625 0.5 -2.0l1.546875 -5.65625l1.6875 0l1.4375 5.609375l0.484375 1.84375l0.5625 -1.859375l1.65625 -5.59375l1.59375 0l-3.03125 9.671875l-1.703125 0l-1.53125 -5.796875l-0.375 -1.640625l-1.953125 7.4375l-1.71875 0zm11.082306 -4.84375q0 -2.6875 1.484375 -3.96875q1.25 -1.078125 3.046875 -1.078125q2.0 0 3.265625 1.3125q1.265625 1.296875 1.265625 3.609375q0 1.859375 -0.5625 2.9375q-0.5625 1.0625 -1.640625 1.65625q-1.0625 0.59375 -2.328125 0.59375q-2.03125 0 -3.28125 -1.296875q-1.25 -1.3125 -1.25 -3.765625zm1.6875 0q0 1.859375 0.796875 2.796875q0.8125 0.921875 2.046875 0.921875q1.21875 0 2.03125 -0.921875q0.8125 -0.9375 0.8125 -2.84375q0 -1.796875 -0.8125 -2.71875q-0.8125 -0.921875 -2.03125 -0.921875q-1.234375 0 -2.046875 0.921875q-0.796875 0.90625 -0.796875 2.765625zm9.281982 4.84375l0 -9.671875l1.46875 0l0 1.46875q0.5625 -1.03125 1.03125 -1.359375q0.484375 -0.328125 1.0625 -0.328125q0.828125 0 1.6875 0.53125l-0.5625 1.515625q-0.609375 -0.359375 -1.203125 -0.359375q-0.546875 0 -0.96875 0.328125q-0.421875 0.328125 -0.609375 0.890625q-0.28125 0.875 -0.28125 1.921875l0 5.0625l-1.625 0zm6.228302 0l0 -13.359375l1.640625 0l0 7.625l3.890625 -3.9375l2.109375 0l-3.6875 3.59375l4.0625 6.078125l-2.015625 0l-3.203125 -4.953125l-1.15625 1.125l0 3.828125l-1.640625 0z" fill-rule="nonzero"/><path fill="#b6d7a8" d="m296.20062 121.28191l0 0c-1.1652527 -6.5706863 2.660492 -13.075256 9.853821 -16.753601c7.1932983 -3.678337 16.492645 -3.8853378 23.951965 -0.533165l0 0c2.6423035 -3.820465 7.4785156 -6.458229 13.045776 -7.1154327c5.56723 -0.65719604 11.211639 0.74337006 15.22583 3.7780533l0 0c2.2509155 -3.4638824 6.670624 -5.7911606 11.690796 -6.1560135c5.020172 -0.36484528 9.930298 1.284378 12.988037 4.362442l0 0c4.06662 -3.6716995 10.536682 -5.2176437 16.610596 -3.9688797c6.073883 1.2487564 10.660706 5.067932 11.775665 9.804939l0 0c4.9823 1.042778 9.132416 3.6936646 11.378143 7.267746c2.2457275 3.574089 2.3667603 7.720764 0.3317871 11.36866l0 0c4.9060974 4.8995285 6.053772 11.428093 3.0147095 17.149345c-3.0390625 5.721237 -9.808258 9.775635 -17.781464 10.650131c-0.05618286 5.3695984 -3.8940735 10.296677 -10.034332 12.882126c-6.1402893 2.5854492 -13.624115 2.425537 -19.566956 -0.41809082l0 0c-2.531311 6.431015 -9.656128 11.162903 -18.296295 12.151306c-8.640137 0.9884033 -17.246674 -1.9438782 -22.101288 -7.5299835l0 0c-5.950714 2.7534027 -13.091095 3.546585 -19.810394 2.200592c-6.7192993 -1.345993 -12.451508 -4.7177734 -15.903595 -9.354721l0 0c-6.080902 0.54600525 -11.960266 -1.8714294 -14.720245 -6.0525513c-2.7599487 -4.181122 -1.8129578 -9.235886 2.3710327 -12.655594l0 0c-5.4243164 -2.4497375 -8.192139 -7.310791 -6.860138 -12.048355c1.3320007 -4.737549 6.4619446 -8.278038 12.714813 -8.775246z" fill-rule="evenodd"/><path fill="#000000" fill-opacity="0.0" d="m290.22574 142.35875l0 0c2.5597534 1.1560364 5.5168457 1.6804352 8.474304 1.5028076m3.8735962 17.205765c1.2717896 -0.11419678 2.518402 -0.35603333 3.707672 -0.71925354m32.004547 7.8730774c-0.89450073 -1.0292816 -1.6434326 -2.129181 -2.2340393 -3.2809143m42.63315 -1.3406067l0 0c0.46151733 -1.1724701 0.76052856 -2.3791962 0.8920593 -3.6000366m28.7081 -8.863541c0.05984497 -5.7167664 -4.1717834 -10.951096 -10.877289 -13.454681m25.64392 -14.3441925c-1.0859375 1.9466705 -2.7437134 3.6735306 -4.8434143 5.0451813m-6.865509 -23.682098l0 0c0.18502808 0.7861099 0.2706604 1.5840302 0.2557068 2.3827133m-28.64148 -8.218536l0 0c-1.0144043 0.9159088 -1.8501587 1.9394226 -2.4812012 3.038681m-22.197876 -1.2455063l0 0c-0.5405884 0.8319092 -0.9442749 1.7122192 -1.2017212 2.620636m-27.070312 0.71681213l0 0c1.5783997 0.70932007 3.0386353 1.563057 4.3486023 2.5424652m-38.15393 14.744392l0 0c0.16061401 0.90560913 0.41436768 1.8000488 0.75891113 2.674965" fill-rule="evenodd"/><path stroke="#000000" stroke-width="1.0" stroke-linejoin="round" stroke-linecap="butt" d="m296.20062 121.28191l0 0c-1.1652527 -6.5706863 2.660492 -13.075256 9.853821 -16.753601c7.1932983 -3.678337 16.492645 -3.8853378 23.951965 -0.533165l0 0c2.6423035 -3.820465 7.4785156 -6.458229 13.045776 -7.1154327c5.56723 -0.65719604 11.211639 0.74337006 15.22583 3.7780533l0 0c2.2509155 -3.4638824 6.670624 -5.7911606 11.690796 -6.1560135c5.020172 -0.36484528 9.930298 1.284378 12.988037 4.362442l0 0c4.06662 -3.6716995 10.536682 -5.2176437 16.610596 -3.9688797c6.073883 1.2487564 10.660706 5.067932 11.775665 9.804939l0 0c4.9823 1.042778 9.132416 3.6936646 11.378143 7.267746c2.2457275 3.574089 2.3667603 7.720764 0.3317871 11.36866l0 0c4.9060974 4.8995285 6.053772 11.428093 3.0147095 17.149345c-3.0390625 5.721237 -9.808258 9.775635 -17.781464 10.650131c-0.05618286 5.3695984 -3.8940735 10.296677 -10.034332 12.882126c-6.1402893 2.5854492 -13.624115 2.425537 -19.566956 -0.41809082l0 0c-2.531311 6.431015 -9.656128 11.162903 -18.296295 12.151306c-8.640137 0.9884033 -17.246674 -1.9438782 -22.101288 -7.5299835l0 0c-5.950714 2.7534027 -13.091095 3.546585 -19.810394 2.200592c-6.7192993 -1.345993 -12.451508 -4.7177734 -15.903595 -9.354721l0 0c-6.080902 0.54600525 -11.960266 -1.8714294 -14.720245 -6.0525513c-2.7599487 -4.181122 -1.8129578 -9.235886 2.3710327 -12.655594l0 0c-5.4243164 -2.4497375 -8.192139 -7.310791 -6.860138 -12.048355c1.3320007 -4.737549 6.4619446 -8.278038 12.714813 -8.775246z" fill-rule="evenodd"/><path stroke="#000000" stroke-width="1.0" stroke-linejoin="round" stroke-linecap="butt" d="m290.22574 142.35875l0 0c2.5597534 1.1560364 5.5168457 1.6804352 8.474304 1.5028076m3.8735962 17.205765c1.2717896 -0.11419678 2.518402 -0.35603333 3.707672 -0.71925354m32.004547 7.8730774c-0.89450073 -1.0292816 -1.6434326 -2.129181 -2.2340393 -3.2809143m42.63315 -1.3406067l0 0c0.46151733 -1.1724701 0.76052856 -2.3791962 0.8920593 -3.6000366m28.7081 -8.863541c0.05984497 -5.7167664 -4.1717834 -10.951096 -10.877289 -13.454681m25.64392 -14.3441925c-1.0859375 1.9466705 -2.7437134 3.6735306 -4.8434143 5.0451813m-6.865509 -23.682098l0 0c0.18502808 0.7861099 0.2706604 1.5840302 0.2557068 2.3827133m-28.64148 -8.218536l0 0c-1.0144043 0.9159088 -1.8501587 1.9394226 -2.4812012 3.038681m-22.197876 -1.2455063l0 0c-0.5405884 0.8319092 -0.9442749 1.7122192 -1.2017212 2.620636m-27.070312 0.71681213l0 0c1.5783997 0.70932007 3.0386353 1.563057 4.3486023 2.5424652m-38.15393 14.744392l0 0c0.16061401 0.90560913 0.41436768 1.8000488 0.75891113 2.674965" fill-rule="evenodd"/><path fill="#000000" d="m333.0414 139.94708l0 -13.359367l1.8125 0l7.015625 10.484367l0 -10.484367l1.6875 0l0 13.359367l-1.8125 0l-7.015625 -10.5l0 10.5l-1.6875 0zm13.582306 0l0 -13.359367l9.015625 0l0 1.5781174l-7.25 0l0 4.140625l6.265625 0l0 1.578125l-6.265625 0l0 6.0625l-1.765625 0zm10.708496 -4.296875l1.65625 -0.140625q0.125 1.0 0.546875 1.640625q0.4375 0.640625 1.34375 1.046875q0.921875 0.390625 2.0625 0.390625q1.0 0 1.78125 -0.296875q0.78125 -0.296875 1.15625 -0.8125q0.375 -0.53125 0.375 -1.15625q0 -0.625 -0.375 -1.09375q-0.359375 -0.46875 -1.1875 -0.796875q-0.546875 -0.203125 -2.390625 -0.640625q-1.828125 -0.453125 -2.5625 -0.84375q-0.96875 -0.5 -1.4375 -1.234375q-0.46875 -0.75 -0.46875 -1.671875q0 -1.0 0.578125 -1.875q0.578125 -0.8906174 1.671875 -1.3437424q1.109375 -0.453125 2.453125 -0.453125q1.484375 0 2.609375 0.484375q1.140625 0.46875 1.75 1.4062424q0.609375 0.921875 0.65625 2.09375l-1.6875 0.125q-0.140625 -1.265625 -0.9375 -1.90625q-0.78125 -0.6562424 -2.3125 -0.6562424q-1.609375 0 -2.34375 0.5937424q-0.734375 0.59375 -0.734375 1.421875q0 0.71875 0.53125 1.171875q0.5 0.46875 2.65625 0.96875q2.15625 0.484375 2.953125 0.84375q1.171875 0.53125 1.71875 1.359375q0.5625 0.828125 0.5625 1.90625q0 1.0625 -0.609375 2.015625q-0.609375 0.9375 -1.75 1.46875q-1.140625 0.515625 -2.578125 0.515625q-1.8125 0 -3.046875 -0.53125q-1.21875 -0.53125 -1.921875 -1.59375q-0.6875 -1.0625 -0.71875 -2.40625z" fill-rule="nonzero"/><path fill="#b6d7a8" d="m477.74918 121.28191l0 0c-1.1652222 -6.5706863 2.660492 -13.075256 9.853821 -16.753601c7.1932983 -3.678337 16.492645 -3.8853378 23.951965 -0.533165l0 0c2.6423035 -3.820465 7.478546 -6.458229 13.045746 -7.1154327c5.5672607 -0.65719604 11.21167 0.74337006 15.225891 3.7780533l0 0c2.2509155 -3.4638824 6.6705933 -5.7911606 11.690796 -6.1560135c5.0201416 -0.36484528 9.930298 1.284378 12.988037 4.362442l0 0c4.0665894 -3.6716995 10.536682 -5.2176437 16.610535 -3.9688797c6.0739136 1.2487564 10.660706 5.067932 11.775696 9.804939l0 0c4.9823 1.042778 9.132446 3.6936646 11.378174 7.267746c2.2457275 3.574089 2.3667603 7.720764 0.3317871 11.36866l0 0c4.906067 4.8995285 6.053711 11.428093 3.0146484 17.149345c-3.0390625 5.721237 -9.808228 9.775635 -17.781433 10.650131c-0.05621338 5.3695984 -3.894043 10.296677 -10.034363 12.882126c-6.140259 2.5854492 -13.624084 2.425537 -19.566895 -0.41809082l0 0c-2.531311 6.431015 -9.656189 11.162903 -18.296326 12.151306c-8.640137 0.9884033 -17.246704 -1.9438782 -22.101257 -7.5299835l0 0c-5.9507446 2.7534027 -13.0911255 3.546585 -19.810425 2.200592c-6.7192993 -1.345993 -12.451508 -4.7177734 -15.903595 -9.354721l0 0c-6.080902 0.54600525 -11.960266 -1.8714294 -14.720215 -6.0525513c-2.7599792 -4.181122 -1.8129578 -9.235886 2.3710022 -12.655594l0 0c-5.4243164 -2.4497375 -8.192139 -7.310791 -6.860138 -12.048355c1.3320007 -4.737549 6.4619446 -8.278038 12.714813 -8.775246z" fill-rule="evenodd"/><path fill="#000000" fill-opacity="0.0" d="m471.7743 142.35875l0 0c2.5597534 1.1560364 5.5168457 1.6804352 8.474304 1.5028076m3.8735962 17.205765c1.2717896 -0.11419678 2.518402 -0.35603333 3.707672 -0.71925354m32.004547 7.8730774c-0.89453125 -1.0292816 -1.6434326 -2.129181 -2.2340088 -3.2809143m42.633118 -1.3406067l0 0c0.46148682 -1.1724701 0.76049805 -2.3791962 0.89208984 -3.6000366m28.708069 -8.863541c0.05987549 -5.7167664 -4.171814 -10.951096 -10.877319 -13.454681m25.643982 -14.3441925c-1.0859375 1.9466705 -2.7437744 3.6735306 -4.843445 5.0451813m-6.8654785 -23.682098l0 0c0.18499756 0.7861099 0.27062988 1.5840302 0.25567627 2.3827133m-28.64148 -8.218536l0 0c-1.0144043 0.9159088 -1.8501587 1.9394226 -2.4812012 3.038681m-22.197876 -1.2455063l0 0c-0.5405884 0.8319092 -0.9442749 1.7122192 -1.2017212 2.620636m-27.070282 0.71681213l0 0c1.5783997 0.70932007 3.0386047 1.563057 4.3486023 2.5424652m-38.15396 14.744392l0 0c0.16061401 0.90560913 0.41436768 1.8000488 0.75891113 2.674965" fill-rule="evenodd"/><path stroke="#000000" stroke-width="1.0" stroke-linejoin="round" stroke-linecap="butt" d="m477.74918 121.28191l0 0c-1.1652222 -6.5706863 2.660492 -13.075256 9.853821 -16.753601c7.1932983 -3.678337 16.492645 -3.8853378 23.951965 -0.533165l0 0c2.6423035 -3.820465 7.478546 -6.458229 13.045746 -7.1154327c5.5672607 -0.65719604 11.21167 0.74337006 15.225891 3.7780533l0 0c2.2509155 -3.4638824 6.6705933 -5.7911606 11.690796 -6.1560135c5.0201416 -0.36484528 9.930298 1.284378 12.988037 4.362442l0 0c4.0665894 -3.6716995 10.536682 -5.2176437 16.610535 -3.9688797c6.0739136 1.2487564 10.660706 5.067932 11.775696 9.804939l0 0c4.9823 1.042778 9.132446 3.6936646 11.378174 7.267746c2.2457275 3.574089 2.3667603 7.720764 0.3317871 11.36866l0 0c4.906067 4.8995285 6.053711 11.428093 3.0146484 17.149345c-3.0390625 5.721237 -9.808228 9.775635 -17.781433 10.650131c-0.05621338 5.3695984 -3.894043 10.296677 -10.034363 12.882126c-6.140259 2.5854492 -13.624084 2.425537 -19.566895 -0.41809082l0 0c-2.531311 6.431015 -9.656189 11.162903 -18.296326 12.151306c-8.640137 0.9884033 -17.246704 -1.9438782 -22.101257 -7.5299835l0 0c-5.9507446 2.7534027 -13.0911255 3.546585 -19.810425 2.200592c-6.7192993 -1.345993 -12.451508 -4.7177734 -15.903595 -9.354721l0 0c-6.080902 0.54600525 -11.960266 -1.8714294 -14.720215 -6.0525513c-2.7599792 -4.181122 -1.8129578 -9.235886 2.3710022 -12.655594l0 0c-5.4243164 -2.4497375 -8.192139 -7.310791 -6.860138 -12.048355c1.3320007 -4.737549 6.4619446 -8.278038 12.714813 -8.775246z" fill-rule="evenodd"/><path stroke="#000000" stroke-width="1.0" stroke-linejoin="round" stroke-linecap="butt" d="m471.7743 142.35875l0 0c2.5597534 1.1560364 5.5168457 1.6804352 8.474304 1.5028076m3.8735962 17.205765c1.2717896 -0.11419678 2.518402 -0.35603333 3.707672 -0.71925354m32.004547 7.8730774c-0.89453125 -1.0292816 -1.6434326 -2.129181 -2.2340088 -3.2809143m42.633118 -1.3406067l0 0c0.46148682 -1.1724701 0.76049805 -2.3791962 0.89208984 -3.6000366m28.708069 -8.863541c0.05987549 -5.7167664 -4.171814 -10.951096 -10.877319 -13.454681m25.643982 -14.3441925c-1.0859375 1.9466705 -2.7437744 3.6735306 -4.843445 5.0451813m-6.8654785 -23.682098l0 0c0.18499756 0.7861099 0.27062988 1.5840302 0.25567627 2.3827133m-28.64148 -8.218536l0 0c-1.0144043 0.9159088 -1.8501587 1.9394226 -2.4812012 3.038681m-22.197876 -1.2455063l0 0c-0.5405884 0.8319092 -0.9442749 1.7122192 -1.2017212 2.620636m-27.070282 0.71681213l0 0c1.5783997 0.70932007 3.0386047 1.563057 4.3486023 2.5424652m-38.15396 14.744392l0 0c0.16061401 0.90560913 0.41436768 1.8000488 0.75891113 2.674965" fill-rule="evenodd"/><path fill="#000000" d="m520.49304 135.25958l1.765625 0.453125q-0.5625 2.171875 -2.0 3.328125q-1.4375 1.140625 -3.53125 1.140625q-2.15625 0 -3.515625 -0.875q-1.34375 -0.890625 -2.0625 -2.546875q-0.703125 -1.671875 -0.703125 -3.59375q0 -2.078125 0.796875 -3.625q0.796875 -1.5624924 2.265625 -2.3593674q1.484375 -0.8125 3.25 -0.8125q2.0 0 3.359375 1.015625q1.375 1.0156174 1.90625 2.8749924l-1.734375 0.40625q-0.46875 -1.453125 -1.359375 -2.109375q-0.875 -0.6718674 -2.203125 -0.6718674q-1.546875 0 -2.578125 0.7343674q-1.03125 0.734375 -1.453125 1.984375q-0.421875 1.234375 -0.421875 2.5625q0 1.703125 0.5 2.96875q0.5 1.265625 1.546875 1.90625q1.046875 0.625 2.265625 0.625q1.484375 0 2.515625 -0.859375q1.03125 -0.859375 1.390625 -2.546875zm10.363586 1.578125l1.6875 0.203125q-0.40625 1.484375 -1.484375 2.3125q-1.078125 0.8125 -2.765625 0.8125q-2.125 0 -3.375 -1.296875q-1.234375 -1.3125 -1.234375 -3.671875q0 -2.453125 1.25 -3.796875q1.265625 -1.34375 3.265625 -1.34375q1.9375 0 3.15625 1.328125q1.234375 1.3125 1.234375 3.703125q0 0.15625 0 0.4375l-7.21875 0q0.09375 1.59375 0.90625 2.453125q0.8125 0.84375 2.015625 0.84375q0.90625 0 1.546875 -0.46875q0.640625 -0.484375 1.015625 -1.515625zm-5.390625 -2.65625l5.40625 0q-0.109375 -1.21875 -0.625 -1.828125q-0.78125 -0.953125 -2.03125 -0.953125q-1.125 0 -1.90625 0.765625q-0.765625 0.75 -0.84375 2.015625zm9.141357 9.46875l0 -13.375l1.484375 0l0 1.25q0.53125 -0.734375 1.1875 -1.09375q0.671875 -0.375 1.625 -0.375q1.234375 0 2.171875 0.640625q0.953125 0.625 1.4375 1.796875q0.484375 1.15625 0.484375 2.546875q0 1.484375 -0.53125 2.671875q-0.53125 1.1875 -1.546875 1.828125q-1.015625 0.625 -2.140625 0.625q-0.8125 0 -1.46875 -0.34375q-0.65625 -0.34375 -1.0625 -0.875l0 4.703125l-1.640625 0zm1.484375 -8.484375q0 1.859375 0.75 2.765625q0.765625 0.890625 1.828125 0.890625q1.09375 0 1.875 -0.921875q0.78125 -0.9375 0.78125 -2.875q0 -1.84375 -0.765625 -2.765625q-0.75 -0.921875 -1.8125 -0.921875q-1.046875 0 -1.859375 0.984375q-0.796875 0.96875 -0.796875 2.84375zm8.891296 4.78125l0 -13.359367l1.640625 0l0 4.7968674q1.140625 -1.328125 2.890625 -1.328125q1.078125 0 1.859375 0.421875q0.796875 0.421875 1.140625 1.171875q0.34375 0.75 0.34375 2.171875l0 6.125l-1.640625 0l0 -6.125q0 -1.234375 -0.53125 -1.796875q-0.53125 -0.5625 -1.515625 -0.5625q-0.71875 0 -1.359375 0.390625q-0.640625 0.375 -0.921875 1.015625q-0.265625 0.640625 -0.265625 1.78125l0 5.296875l-1.640625 0z" fill-rule="nonzero"/><path fill="#000000" fill-opacity="0.0" d="m436.0 238.48294l-80.59842 -62.92914" fill-rule="evenodd"/><path stroke="#000000" stroke-width="1.0" stroke-linejoin="round" stroke-linecap="butt" d="m436.0 238.48294l-75.86917 -59.23668" fill-rule="evenodd"/><path fill="#000000" stroke="#000000" stroke-width="1.0" stroke-linecap="butt" d="m361.1473 177.94437l-4.593445 -1.4908905l2.5604553 4.094696z" fill-rule="evenodd"/><path fill="#000000" fill-opacity="0.0" d="m436.0 238.48294l100.97638 -62.92914" fill-rule="evenodd"/><path stroke="#000000" stroke-width="1.0" stroke-linejoin="round" stroke-linecap="butt" d="m436.0 238.48294l95.88428 -59.755707" fill-rule="evenodd"/><path fill="#000000" stroke="#000000" stroke-width="1.0" stroke-linecap="butt" d="m532.7579 180.12903l2.9778442 -3.8020172l-4.7250366 0.99842834z" fill-rule="evenodd"/></g></svg>