<svg xmlns="http://www.w3.org/2000/svg" xmlns:xlink="http://www.w3.org/1999/xlink" xmlns:lucid="lucid" width="1640" height="1241.67"><g transform="translate(-60 -20)" lucid:page-tab-id="0_0"><path d="M0 0h1760v1360H0z" fill="#fff"/><path d="M80 81.67V46a6 6 0 0 1 6-6h1588a6 6 0 0 1 6 6v35.67z" stroke="#3a414a" fill="#fff"/><path d="M1680 81.67v1154a6 6 0 0 1-6 6H86a6 6 0 0 1-6-6v-1154z" stroke="#3a414a" fill="none"/><use xlink:href="#a" transform="matrix(1,0,0,1,80,40) translate(739.6296296296297 25.444444444444443)"/><use xlink:href="#b" transform="matrix(1,0,0,1,80,40) translate(790.1851851851852 25.444444444444443)"/><path d="M340.48 567.8c.16-.6-.08-1.2-.65-1.5l-12.57-6.2c-.17-.1-.4-.1-.57-.1h-51.44c-.25 0-.4 0-.57.1l-14.45 6.1c-.65.3-.9 1-.73 1.6-.08.2-.08.3-.08.4v90.4c0 .8.57 1.4 1.38 1.4h78.36c.73 0 1.38-.6 1.38-1.4v-45.1-.1-45.2c0-.1 0-.2-.08-.4zm-64.98-5.1h50.86l8.36 4.1h-68.87l9.65-4.1zm62.3 94.6h-75.6v-19.9h75.6v19.9zm0-22.6h-75.6v-19.8h75.6v19.8zm0-22.7h-75.6v-19.9h75.6V612zm0-34.1v4.1m0 7.4h-75.6v-19.8h75.6v19.8z" stroke="#000" stroke-opacity="0" stroke-width=".69"/><path d="M270.96 579.1c0 1.1-.9 1.9-1.87 1.9-1.06 0-1.95-.8-1.95-1.9 0-1 .9-1.8 1.94-1.8.97 0 1.86.8 1.86 1.8zM277.6 579.1c0 1.1-.88 1.9-1.86 1.9-1.05 0-1.94-.8-1.94-1.9 0-1 .9-1.8 1.94-1.8.98 0 1.87.8 1.87 1.8zM270.96 602.3c0 1.1-.9 1.9-1.87 1.9-1.06 0-1.95-.8-1.95-1.9 0-1 .9-1.9 1.94-1.9.97 0 1.86.9 1.86 1.9zM277.6 602.3c0 1.1-.88 1.9-1.86 1.9-1.05 0-1.94-.8-1.94-1.9 0-1 .9-1.9 1.94-1.9.98 0 1.87.9 1.87 1.9zM270.96 624.1c0 1.1-.9 1.9-1.87 1.9-1.06 0-1.95-.8-1.95-1.9 0-1 .9-1.9 1.94-1.9.97 0 1.86.9 1.86 1.9zM277.6 624.1c0 1.1-.88 1.9-1.86 1.9-1.05 0-1.94-.8-1.94-1.9 0-1 .9-1.9 1.94-1.9.98 0 1.87.9 1.87 1.9zM270.96 647.3c0 1-.9 1.9-1.87 1.9-1.06 0-1.95-.9-1.95-1.9 0-1 .9-1.9 1.94-1.9.97 0 1.86.9 1.86 1.9zM277.6 647.3c0 1-.88 1.9-1.86 1.9-1.05 0-1.94-.9-1.94-1.9 0-1 .9-1.9 1.94-1.9.98 0 1.87.9 1.87 1.9zM334.07 584.8c0 .4-.32.7-.65.7h-4.13c-.34 0-.66-.3-.66-.7v-10.9c0-.4.32-.7.65-.7h4.12c.33 0 .65.3.65.7v10.9zm-4.05-.7h2.67v-9.5H330v9.5zM325.88 584.8c0 .4-.33.7-.65.7h-4.14c-.33 0-.66-.3-.66-.7v-10.9c0-.4.33-.7.65-.7h4.13c.32 0 .65.3.65.7v10.9zm-4.06-.7h2.68v-9.5h-2.68v9.5zM334.07 608c0 .3-.32.6-.65.6h-4.13c-.34 0-.66-.3-.66-.6v-10.9c0-.4.32-.7.65-.7h4.12c.33 0 .65.3.65.7V608zm-4.05-.7h2.67v-9.6H330v9.6zM325.88 608c0 .3-.33.6-.65.6h-4.14c-.33 0-.66-.3-.66-.6v-10.9c0-.4.33-.7.65-.7h4.13c.32 0 .65.3.65.7V608zm-4.06-.7h2.68v-9.6h-2.68v9.6zM334.07 629.5c0 .4-.32.9-.65.9h-4.13c-.34 0-.66-.5-.66-.9v-10.9c0-.4.32-.4.65-.4h4.12c.33 0 .65 0 .65.4v10.9zm-4.05-.4h2.67v-9.6H330v9.6zM325.88 629.5c0 .4-.33.9-.65.9h-4.14c-.33 0-.66-.5-.66-.9v-10.9c0-.4.33-.4.65-.4h4.13c.32 0 .65 0 .65.4v10.9zm-4.06-.4h2.68v-9.6h-2.68v9.6zM334.07 652.7c0 .3-.32.9-.65.9h-4.13c-.34 0-.66-.6-.66-.9v-10.9c0-.4.32-.5.65-.5h4.12c.33 0 .65.1.65.5v10.9zm-4.05-.5h2.67v-9.5H330v9.5zM325.88 652.7c0 .3-.33.9-.65.9h-4.14c-.33 0-.66-.6-.66-.9v-10.9c0-.4.33-.5.65-.5h4.13c.32 0 .65.1.65.5v10.9zm-4.06-.5h2.68v-9.5h-2.68v9.5zM859.92 567.8c.16-.6-.08-1.2-.65-1.5l-12.57-6.2c-.17-.1-.4-.1-.57-.1H794.7c-.25 0-.4 0-.57.1l-14.44 6.1c-.66.3-.9 1-.74 1.6-.08.2-.08.3-.08.4v90.4c0 .8.57 1.4 1.38 1.4h78.36c.73 0 1.38-.6 1.38-1.4v-45.1-.1-45.2c0-.1 0-.2-.08-.4zm-64.98-5.1h50.86l8.36 4.1H785.3l9.64-4.1zm62.3 94.6h-75.6v-19.9h75.6v19.9zm0-22.6h-75.6v-19.8h75.6v19.8zm0-22.7h-75.6v-19.9h75.6V612zm0-34.1v4.1m0 7.4h-75.6v-19.8h75.6v19.8z" stroke="#000" stroke-opacity="0" stroke-width=".69"/><path d="M790.4 579.1c0 1.1-.9 1.9-1.87 1.9-1.05 0-1.95-.8-1.95-1.9 0-1 .9-1.8 1.95-1.8.97 0 1.87.8 1.87 1.8zM797.05 579.1c0 1.1-.9 1.9-1.87 1.9-1.05 0-1.94-.8-1.94-1.9 0-1 .9-1.8 1.94-1.8.98 0 1.87.8 1.87 1.8zM790.4 602.3c0 1.1-.9 1.9-1.87 1.9-1.05 0-1.95-.8-1.95-1.9 0-1 .9-1.9 1.95-1.9.97 0 1.87.9 1.87 1.9zM797.05 602.3c0 1.1-.9 1.9-1.87 1.9-1.05 0-1.94-.8-1.94-1.9 0-1 .9-1.9 1.94-1.9.98 0 1.87.9 1.87 1.9zM790.4 624.1c0 1.1-.9 1.9-1.87 1.9-1.05 0-1.95-.8-1.95-1.9 0-1 .9-1.9 1.95-1.9.97 0 1.87.9 1.87 1.9zM797.05 624.1c0 1.1-.9 1.9-1.87 1.9-1.05 0-1.94-.8-1.94-1.9 0-1 .9-1.9 1.94-1.9.98 0 1.87.9 1.87 1.9zM790.4 647.3c0 1-.9 1.9-1.87 1.9-1.05 0-1.95-.9-1.95-1.9 0-1 .9-1.9 1.95-1.9.97 0 1.87.9 1.87 1.9zM797.05 647.3c0 1-.9 1.9-1.87 1.9-1.05 0-1.94-.9-1.94-1.9 0-1 .9-1.9 1.94-1.9.98 0 1.87.9 1.87 1.9zM853.5 584.8c0 .4-.3.7-.64.7h-4.14c-.32 0-.64-.3-.64-.7v-10.9c0-.4.32-.7.64-.7h4.14c.33 0 .65.3.65.7v10.9zm-4.05-.7h2.68v-9.5h-2.68v9.5zM845.32 584.8c0 .4-.33.7-.65.7h-4.14c-.32 0-.65-.3-.65-.7v-10.9c0-.4.33-.7.65-.7h4.14c.32 0 .65.3.65.7v10.9zm-4.06-.7h2.68v-9.5h-2.68v9.5zM853.5 608c0 .3-.3.6-.64.6h-4.14c-.32 0-.64-.3-.64-.6v-10.9c0-.4.32-.7.64-.7h4.14c.33 0 .65.3.65.7V608zm-4.05-.7h2.68v-9.6h-2.68v9.6zM845.32 608c0 .3-.33.6-.65.6h-4.14c-.32 0-.65-.3-.65-.6v-10.9c0-.4.33-.7.65-.7h4.14c.32 0 .65.3.65.7V608zm-4.06-.7h2.68v-9.6h-2.68v9.6zM853.5 629.5c0 .4-.3.9-.64.9h-4.14c-.32 0-.64-.5-.64-.9v-10.9c0-.4.32-.4.64-.4h4.14c.33 0 .65 0 .65.4v10.9zm-4.05-.4h2.68v-9.6h-2.68v9.6zM845.32 629.5c0 .4-.33.9-.65.9h-4.14c-.32 0-.65-.5-.65-.9v-10.9c0-.4.33-.4.65-.4h4.14c.32 0 .65 0 .65.4v10.9zm-4.06-.4h2.68v-9.6h-2.68v9.6zM853.5 652.7c0 .3-.3.9-.64.9h-4.14c-.32 0-.64-.6-.64-.9v-10.9c0-.4.32-.5.64-.5h4.14c.33 0 .65.1.65.5v10.9zm-4.05-.5h2.68v-9.5h-2.68v9.5zM845.32 652.7c0 .3-.33.9-.65.9h-4.14c-.32 0-.65-.6-.65-.9v-10.9c0-.4.33-.5.65-.5h4.14c.32 0 .65.1.65.5v10.9zm-4.06-.5h2.68v-9.5h-2.68v9.5zM1380.48 567.8c.16-.6-.08-1.2-.65-1.5l-12.57-6.2c-.17-.1-.4-.1-.57-.1h-51.44c-.25 0-.4 0-.57.1l-14.45 6.1c-.65.3-.9 1-.73 1.6-.08.2-.08.3-.08.4v90.4c0 .8.57 1.4 1.38 1.4h78.36c.73 0 1.38-.6 1.38-1.4v-45.1-.1-45.2c0-.1 0-.2-.08-.4zm-64.98-5.1h50.86l8.36 4.1h-68.87l9.65-4.1zm62.3 94.6h-75.6v-19.9h75.6v19.9zm0-22.6h-75.6v-19.8h75.6v19.8zm0-22.7h-75.6v-19.9h75.6V612zm0-34.1v4.1m0 7.4h-75.6v-19.8h75.6v19.8z" stroke="#000" stroke-opacity="0" stroke-width=".69"/><path d="M1310.96 579.1c0 1.1-.9 1.9-1.87 1.9-1.06 0-1.95-.8-1.95-1.9 0-1 .9-1.8 1.94-1.8.97 0 1.86.8 1.86 1.8zM1317.6 579.1c0 1.1-.88 1.9-1.86 1.9-1.05 0-1.94-.8-1.94-1.9 0-1 .9-1.8 1.94-1.8.98 0 1.87.8 1.87 1.8zM1310.96 602.3c0 1.1-.9 1.9-1.87 1.9-1.06 0-1.95-.8-1.95-1.9 0-1 .9-1.9 1.94-1.9.97 0 1.86.9 1.86 1.9zM1317.6 602.3c0 1.1-.88 1.9-1.86 1.9-1.05 0-1.94-.8-1.94-1.9 0-1 .9-1.9 1.94-1.9.98 0 1.87.9 1.87 1.9zM1310.96 624.1c0 1.1-.9 1.9-1.87 1.9-1.06 0-1.95-.8-1.95-1.9 0-1 .9-1.9 1.94-1.9.97 0 1.86.9 1.86 1.9zM1317.6 624.1c0 1.1-.88 1.9-1.86 1.9-1.05 0-1.94-.8-1.94-1.9 0-1 .9-1.9 1.94-1.9.98 0 1.87.9 1.87 1.9zM1310.96 647.3c0 1-.9 1.9-1.87 1.9-1.06 0-1.95-.9-1.95-1.9 0-1 .9-1.9 1.94-1.9.97 0 1.86.9 1.86 1.9zM1317.6 647.3c0 1-.88 1.9-1.86 1.9-1.05 0-1.94-.9-1.94-1.9 0-1 .9-1.9 1.94-1.9.98 0 1.87.9 1.87 1.9zM1374.07 584.8c0 .4-.32.7-.65.7h-4.13c-.34 0-.66-.3-.66-.7v-10.9c0-.4.32-.7.65-.7h4.12c.33 0 .65.3.65.7v10.9zm-4.05-.7h2.67v-9.5H1370v9.5zM1365.88 584.8c0 .4-.33.7-.65.7h-4.14c-.33 0-.66-.3-.66-.7v-10.9c0-.4.33-.7.65-.7h4.13c.32 0 .65.3.65.7v10.9zm-4.06-.7h2.68v-9.5h-2.68v9.5zM1374.07 608c0 .3-.32.6-.65.6h-4.13c-.34 0-.66-.3-.66-.6v-10.9c0-.4.32-.7.65-.7h4.12c.33 0 .65.3.65.7V608zm-4.05-.7h2.67v-9.6H1370v9.6zM1365.88 608c0 .3-.33.6-.65.6h-4.14c-.33 0-.66-.3-.66-.6v-10.9c0-.4.33-.7.65-.7h4.13c.32 0 .65.3.65.7V608zm-4.06-.7h2.68v-9.6h-2.68v9.6zM1374.07 629.5c0 .4-.32.9-.65.9h-4.13c-.34 0-.66-.5-.66-.9v-10.9c0-.4.32-.4.65-.4h4.12c.33 0 .65 0 .65.4v10.9zm-4.05-.4h2.67v-9.6H1370v9.6zM1365.88 629.5c0 .4-.33.9-.65.9h-4.14c-.33 0-.66-.5-.66-.9v-10.9c0-.4.33-.4.65-.4h4.13c.32 0 .65 0 .65.4v10.9zm-4.06-.4h2.68v-9.6h-2.68v9.6zM1374.07 652.7c0 .3-.32.9-.65.9h-4.13c-.34 0-.66-.6-.66-.9v-10.9c0-.4.32-.5.65-.5h4.12c.33 0 .65.1.65.5v10.9zm-4.05-.5h2.67v-9.5H1370v9.5zM1365.88 652.7c0 .3-.33.9-.65.9h-4.14c-.33 0-.66-.6-.66-.9v-10.9c0-.4.33-.5.65-.5h4.13c.32 0 .65.1.65.5v10.9zm-4.06-.5h2.68v-9.5h-2.68v9.5z" stroke="#000" stroke-opacity="0" stroke-width=".69"/><path d="M246.52 726.48V720H240v80h6.52v-17.28h4.27v8.64h23.82v6.48h36.76v-6.48h10.8v6.48h21.58v-6.48h8.65v-64.88H246.53zm97.24 56.24H307v-6.48h-38.9v-17.28h-17.08v17.28h-4.5v-32.48h4.5v4.32h25.74v-10.8h28.1v23.76h-28.1v-10.8h-25.74v6.56h19.22v17.28H307v-6.48h36.76v15.12z" stroke="#000" stroke-opacity="0" fill="#2a3282"/><use xlink:href="#c" transform="matrix(1,0,0,1,210,809) translate(63.55 14.4)"/><use xlink:href="#d" transform="matrix(1,0,0,1,210,809) translate(99.45 14.4)"/><path d="M246.52 426.48V420H240v80h6.52v-17.28h4.27v8.64h23.82v6.48h36.76v-6.48h10.8v6.48h21.58v-6.48h8.65v-64.88H246.53zm97.24 56.24H307v-6.48h-38.9v-17.28h-17.08v17.28h-4.5v-32.48h4.5v4.32h25.74v-10.8h28.1v23.76h-28.1v-10.8h-25.74v6.56h19.22v17.28H307v-6.48h36.76v15.12z" stroke="#000" stroke-opacity="0" fill="#2a3282"/><use xlink:href="#e" transform="matrix(1,0,0,1,210,509) translate(66.55 14.4)"/><path d="M769.75 726.48V720h-6.52v80h6.52v-17.28h4.27v8.64h23.84v6.48h36.75v-6.48h10.8v6.48H867v-6.48h8.64v-64.88h-105.9zM867 782.72h-36.77v-6.48h-38.89v-17.28h-17.1v17.28h-4.5v-32.48h4.5v4.32H800v-10.8h28.1v23.76H800v-10.8h-25.75v6.56H793.47v17.28h36.76v-6.48H867v15.12z" stroke="#000" stroke-opacity="0" fill="#2a3282"/><use xlink:href="#c" transform="matrix(1,0,0,1,733.2329519780794,809) translate(63.55 14.4)"/><use xlink:href="#d" transform="matrix(1,0,0,1,733.2329519780794,809) translate(99.45 14.4)"/><path d="M770.3 426.48V420h-6.5v80h6.5v-17.28h4.3v8.64h23.82v6.48h36.76v-6.48h10.8v6.48h21.57v-6.48h8.66v-64.88H770.3zm97.25 56.24H830.8v-6.48H791.9v-17.28h-17.1v17.28h-4.5v-32.48h4.5v4.32h25.75v-10.8h28.1v23.76h-28.1v-10.8H774.8v6.56h19.23v17.28h36.76v-6.48h36.75v15.12z" stroke="#000" stroke-opacity="0" fill="#2a3282"/><use xlink:href="#e" transform="matrix(1,0,0,1,733.7940514871282,509) translate(66.55 14.4)"/><path d="M1293 726.48V720h-6.53v80h6.52v-17.28h4.26v8.64h23.83v6.48h36.75v-6.48h10.8v6.48h21.57v-6.48h8.66v-64.88h-105.9zm97.22 56.24h-36.76v-6.48h-38.89v-17.28h-17.1v17.28H1293v-32.48h4.48v4.32h25.74v-10.8h28.1v23.76h-28.1v-10.8h-25.74v6.56H1316.7v17.28h36.76v-6.48h36.76v15.12z" stroke="#000" stroke-opacity="0" fill="#2a3282"/><use xlink:href="#c" transform="matrix(1,0,0,1,1256.4659039561589,809) translate(63.55 14.4)"/><use xlink:href="#d" transform="matrix(1,0,0,1,1256.4659039561589,809) translate(99.45 14.4)"/><path d="M1294.1 426.48V420h-6.5v80h6.5v-17.28h4.28v8.64h23.83v6.48h36.77v-6.48h10.8v6.48h21.57v-6.48h8.66v-64.88h-105.9zm97.24 56.24h-36.75v-6.48H1315.68v-17.28h-17.1v17.28h-4.5v-32.48h4.5v4.32h25.75v-10.8h28.1v23.76h-28.1v-10.8h-25.75v6.56h19.23v17.28h36.76v-6.48h36.74v15.12z" stroke="#000" stroke-opacity="0" fill="#2a3282"/><use xlink:href="#e" transform="matrix(1,0,0,1,1257.5881029742563,509) translate(66.55 14.4)"/><path d="M799.94 205.67c-1.34-.36-2.8.37-3.17 1.83-2.67 9.1-3.16 17.25-1.7 26.6.12 1.46 1.58 2.43 2.92 2.2 1.45-.26 2.42-1.6 2.18-2.93-1.34-8.62-.97-16.16 1.46-24.42.36-1.45-.37-2.9-1.7-3.28z" stroke="#000" stroke-opacity="0" stroke-width="4.17"/><path d="M844.32 165.1c-34.78-16.03-78.2 7.53-84.15 44.58-1.34 7.17-1.34 13.6 0 20.78v1.1c8.4 47.36 67.98 66.68 102.27 32.9l.5-.48c5.58-5.7 9.6-11.42 12.75-18.7 13.5-30.86-.6-66.7-31.38-80.18zm-79.16 45.92c3.9-3.77 7.66-6.44 12.52-9 21.65-11.4 46.82-7.76 64.45 9.24 1.1.97 2.8.97 3.77 0 .97-1.1.97-2.67 0-3.64-19.2-18.7-46.94-22.6-70.65-10.08-2.8 1.45-5.1 2.8-7.66 4.73 8.02-22.6 28.32-37.05 52.4-37.05 5.1 0 9.36.6 14.23 1.95-2.68.97-4.75 1.94-7.3 3.16-4.13 2.18-7.54 4.5-11.06 7.53-1.1.97-1.22 2.55-.37 3.64.97 1.1 2.68 1.22 3.77.37 3.28-2.8 6.32-4.74 10.1-6.7 4.37-2.3 8.38-3.75 13.25-4.97 6.7 3.04 11.9 6.56 17.02 11.8 4.74 30.48-15.93 58.9-46.33 63.76-18.35 2.92-35.13-2.67-48.26-15.8-1.1-6.55-1.1-12.38.24-18.94zm97.64 26c0-.13-.12-.25-.12-.37-.48-1.46-1.94-2.2-3.28-1.7-1.46.5-2.2 1.94-1.7 3.28 1.94 7.9 2.2 14.94.6 22.96-7.53 7.28-15.56 11.53-25.78 13.96-7.66-3.4-13.5-7.65-18.96-13.85-.98-.84-2.32-.96-3.4-.23-1.1.85-1.35 2.55-.62 3.76 4.38 4.74 8.64 8.26 14.23 11.66-25.66 1.7-48.4-13.5-56.67-38.03 11.68 9.24 24.45 13.37 39.28 13 33.56-.97 60.07-28.9 59.1-62.56 14.1 20.18 13.74 45.93-1.1 65.6.37-6.2-.12-11.4-1.58-17.48z" stroke="#000" stroke-opacity="0" stroke-width="4.17"/><path d="M799.37 985.67c-1.33-.36-2.8.37-3.16 1.83-2.66 9.1-3.15 17.25-1.7 26.6.13 1.46 1.6 2.43 2.93 2.2 1.46-.26 2.43-1.6 2.2-2.93-1.35-8.62-.98-16.16 1.45-24.42.36-1.45-.37-2.9-1.7-3.28z" stroke="#000" stroke-opacity="0" stroke-width="4.17" fill="#e00"/><path d="M843.76 945.1c-34.78-16.03-78.2 7.53-84.15 44.58-1.33 7.17-1.33 13.6 0 20.78v1.1c8.4 47.36 68 66.68 102.28 32.9l.48-.48c5.6-5.7 9.6-11.42 12.77-18.7 13.5-30.86-.6-66.7-31.37-80.18zm-79.16 45.92c3.9-3.77 7.66-6.44 12.52-9 21.65-11.4 46.82-7.76 64.45 9.24 1.1.97 2.8.97 3.77 0 .97-1.1.97-2.67 0-3.64-19.2-18.7-46.94-22.6-70.65-10.08-2.8 1.45-5.12 2.8-7.67 4.73 8.02-22.6 28.33-37.05 52.4-37.05 5.12 0 9.37.6 14.24 1.95-2.68.97-4.75 1.94-7.3 3.16-4.13 2.18-7.54 4.5-11.07 7.53-1.1.97-1.2 2.55-.36 3.64.97 1.1 2.67 1.22 3.77.37 3.3-2.8 6.33-4.74 10.1-6.7 4.38-2.3 8.4-3.75 13.26-4.97 6.68 3.04 11.9 6.56 17.02 11.8 4.74 30.48-15.93 58.9-46.33 63.76-18.36 2.92-35.14-2.67-48.28-15.8-1.1-6.55-1.1-12.38.25-18.94zm97.64 26c0-.13-.12-.25-.12-.37-.5-1.46-1.94-2.2-3.28-1.7-1.46.5-2.2 1.94-1.7 3.28 1.94 7.9 2.18 14.94.6 22.96-7.54 7.28-15.56 11.53-25.78 13.96-7.66-3.4-13.5-7.65-18.97-13.85-.98-.84-2.32-.96-3.4-.23-1.1.85-1.35 2.55-.62 3.76 4.38 4.74 8.63 8.26 14.23 11.66-25.65 1.7-48.4-13.5-56.66-38.03 11.68 9.24 24.44 13.37 39.28 13 33.56-.97 60.07-28.9 59.1-62.56 14.1 20.18 13.74 45.93-1.1 65.6.37-6.2-.12-11.4-1.58-17.48z" stroke="#000" stroke-opacity="0" stroke-width="4.17" fill="#e00"/><path d="M819.78 425.98V297.86" stroke="#3a414a" fill="none"/><path d="M819.28 426.48v-.5h1v.5z" stroke="#3a414a" stroke-width=".05" fill="#3a414a"/><path d="M819.78 283.1l4.63 14.26h-9.26z" stroke="#3a414a" fill="#3a414a"/><path d="M1343.57 425.98v-14.5a6 6 0 0 0-6-6H916a6 6 0 0 1-6-6V226.74a6 6 0 0 0-6-6h-6.83" stroke="#3a414a" fill="none"/><path d="M1343.07 426.48v-.5h1v.5z" stroke="#3a414a" stroke-width=".05" fill="#3a414a"/><path d="M882.4 220.74l14.27-4.64v9.27z" stroke="#3a414a" fill="#3a414a"/><path d="M920 140v-34a6 6 0 0 1 6-6h308a6 6 0 0 1 6 6v34z" stroke="#3a414a" fill="#fff"/><path d="M1240 140v212.33a6 6 0 0 1-6 6H926a6 6 0 0 1-6-6V140z" stroke="#3a414a" fill="none"/><use xlink:href="#f" transform="matrix(1,0,0,1,920,100) translate(104.625 23.6)"/><use xlink:href="#g" transform="matrix(1,0,0,1,920,100) translate(149.525 23.6)"/><path d="M920 141.67h320V360H920z" fill="#fff" fill-opacity="0"/><use xlink:href="#h" transform="matrix(1,0,0,1,925,146.66666666666669) translate(0 19.73333333333333)"/><use xlink:href="#i" transform="matrix(1,0,0,1,925,146.66666666666669) translate(0 49.33333333333333)"/><use xlink:href="#j" transform="matrix(1,0,0,1,925,146.66666666666669) translate(78.04259259259257 49.33333333333333)"/><use xlink:href="#k" transform="matrix(1,0,0,1,925,146.66666666666669) translate(0 78.93333333333332)"/><use xlink:href="#l" transform="matrix(1,0,0,1,925,146.66666666666669) translate(73.79444444444442 78.93333333333332)"/><use xlink:href="#m" transform="matrix(1,0,0,1,925,146.66666666666669) translate(0 108.53333333333332)"/><use xlink:href="#n" transform="matrix(1,0,0,1,925,146.66666666666669) translate(110.93148148148144 108.53333333333332)"/><path d="M940 933.67v-34a6 6 0 0 1 6-6h308a6 6 0 0 1 6 6v34z" stroke="#3a414a" fill="#fff"/><path d="M1260 933.67V1146a6 6 0 0 1-6 6H946a6 6 0 0 1-6-6V933.67z" stroke="#3a414a" fill="none"/><use xlink:href="#o" transform="matrix(1,0,0,1,940,893.6666666666666) translate(63.17499999999998 23.6)"/><use xlink:href="#p" transform="matrix(1,0,0,1,940,893.6666666666666) translate(104.12499999999999 23.6)"/><use xlink:href="#g" transform="matrix(1,0,0,1,940,893.6666666666666) translate(190.975 23.6)"/><path d="M940 935.33h320v218.34H940z" fill="#fff" fill-opacity="0"/><use xlink:href="#h" transform="matrix(1,0,0,1,945,940.3333333333331) translate(0 19.73333333333333)"/><use xlink:href="#i" transform="matrix(1,0,0,1,945,940.3333333333331) translate(0 49.33333333333333)"/><use xlink:href="#q" transform="matrix(1,0,0,1,945,940.3333333333331) translate(78.04259259259257 49.33333333333333)"/><use xlink:href="#k" transform="matrix(1,0,0,1,945,940.3333333333331) translate(0 78.93333333333332)"/><use xlink:href="#r" transform="matrix(1,0,0,1,945,940.3333333333331) translate(73.79444444444442 78.93333333333332)"/><use xlink:href="#m" transform="matrix(1,0,0,1,945,940.3333333333331) translate(0 108.53333333333332)"/><use xlink:href="#s" transform="matrix(1,0,0,1,945,940.3333333333331) translate(110.93148148148144 108.53333333333332)"/><path d="M294.86 798.34v196.4a6 6 0 0 0 6 6h441.6" stroke="#3a414a" fill="none"/><path d="M295.36 798.35h-1v-.5h1z" stroke="#3a414a" stroke-width=".05" fill="#3a414a"/><path d="M757.23 1000.74l-14.27 4.63v-9.27z" stroke="#3a414a" fill="#3a414a"/><path d="M818.1 798.34v125.32" stroke="#3a414a" fill="none"/><path d="M818.6 798.35h-1v-.5h1z" stroke="#3a414a" stroke-width=".05" fill="#3a414a"/><path d="M818.1 938.42l-4.65-14.26h9.28z" stroke="#3a414a" fill="#3a414a"/><path d="M1341.32 798.34v14.5a6 6 0 0 1-6 6H926a6 6 0 0 0-6 6v169.9a6 6 0 0 1-6 6h-17.4" stroke="#3a414a" fill="none"/><path d="M1341.82 798.35h-1v-.5h1z" stroke="#3a414a" stroke-width=".05" fill="#3a414a"/><path d="M881.85 1000.74l14.26-4.64v9.27z" stroke="#3a414a" fill="#3a414a"/><path d="M1415 466.67V431a6 6 0 0 1 6-6h248a6 6 0 0 1 6 6v35.67z" stroke="#3a414a" fill="#fff"/><path d="M1675 466.67V794a6 6 0 0 1-6 6h-248a6 6 0 0 1-6-6V466.67z" stroke="#3a414a" fill="none"/><g><use xlink:href="#a" transform="matrix(1,0,0,1,1415,425) translate(55.030864197530875 25.444444444444443)"/><use xlink:href="#t" transform="matrix(1,0,0,1,1415,425) translate(105.58641975308643 25.444444444444443)"/><use xlink:href="#u" transform="matrix(1,0,0,1,1415,425) translate(159.41358024691357 25.444444444444443)"/><use xlink:href="#v" transform="matrix(1,0,0,1,1415,425) translate(192.62345679012344 25.444444444444443)"/></g><path d="M1417.5 466.67h255V800h-255z" fill="#fff" fill-opacity="0"/><g><use xlink:href="#w" transform="matrix(1,0,0,1,1422.5,471.6666666666667) translate(0 14.399999999999991)"/><use xlink:href="#x" transform="matrix(1,0,0,1,1422.5,471.6666666666667) translate(0 35.99999999999998)"/><use xlink:href="#y" transform="matrix(1,0,0,1,1422.5,471.6666666666667) translate(4.9999999999999964 35.99999999999998)"/><use xlink:href="#z" transform="matrix(1,0,0,1,1422.5,471.6666666666667) translate(15.949999999999989 35.99999999999998)"/><use xlink:href="#A" transform="matrix(1,0,0,1,1422.5,471.6666666666667) translate(0 57.599999999999966)"/><use xlink:href="#B" transform="matrix(1,0,0,1,1422.5,471.6666666666667) translate(44.89999999999998 57.599999999999966)"/><use xlink:href="#x" transform="matrix(1,0,0,1,1422.5,471.6666666666667) translate(0 79.19999999999995)"/><use xlink:href="#y" transform="matrix(1,0,0,1,1422.5,471.6666666666667) translate(4.9999999999999964 79.19999999999995)"/><use xlink:href="#C" transform="matrix(1,0,0,1,1422.5,471.6666666666667) translate(15.949999999999989 79.19999999999995)"/><use xlink:href="#D" transform="matrix(1,0,0,1,1422.5,471.6666666666667) translate(0 100.79999999999994)"/><use xlink:href="#E" transform="matrix(1,0,0,1,1422.5,471.6666666666667) translate(35.89999999999998 100.79999999999994)"/><use xlink:href="#x" transform="matrix(1,0,0,1,1422.5,471.6666666666667) translate(0 122.39999999999993)"/><use xlink:href="#y" transform="matrix(1,0,0,1,1422.5,471.6666666666667) translate(4.9999999999999964 122.39999999999993)"/><use xlink:href="#F" transform="matrix(1,0,0,1,1422.5,471.6666666666667) translate(15.949999999999989 122.39999999999993)"/><use xlink:href="#G" transform="matrix(1,0,0,1,1422.5,471.6666666666667) translate(0 143.99999999999994)"/><use xlink:href="#x" transform="matrix(1,0,0,1,1422.5,471.6666666666667) translate(0 165.5999999999999)"/><use xlink:href="#y" transform="matrix(1,0,0,1,1422.5,471.6666666666667) translate(4.9999999999999964 165.5999999999999)"/><use xlink:href="#H" transform="matrix(1,0,0,1,1422.5,471.6666666666667) translate(15.949999999999989 165.5999999999999)"/><use xlink:href="#I" transform="matrix(1,0,0,1,1422.5,471.6666666666667) translate(0 187.19999999999993)"/></g><path d="M900 463.67V428a6 6 0 0 1 6-6h248a6 6 0 0 1 6 6v35.67z" stroke="#3a414a" fill="#fff"/><path d="M1160 463.67V791a6 6 0 0 1-6 6H906a6 6 0 0 1-6-6V463.67z" stroke="#3a414a" fill="none"/><g><use xlink:href="#a" transform="matrix(1,0,0,1,900,422) translate(55.030864197530875 25.444444444444443)"/><use xlink:href="#t" transform="matrix(1,0,0,1,900,422) translate(105.58641975308643 25.444444444444443)"/><use xlink:href="#u" transform="matrix(1,0,0,1,900,422) translate(159.41358024691357 25.444444444444443)"/><use xlink:href="#J" transform="matrix(1,0,0,1,900,422) translate(192.62345679012344 25.444444444444443)"/></g><path d="M902.5 463.67h255V797h-255z" fill="#fff" fill-opacity="0"/><g><use xlink:href="#w" transform="matrix(1,0,0,1,907.5,468.66666666666686) translate(0 14.399999999999991)"/><use xlink:href="#x" transform="matrix(1,0,0,1,907.5,468.66666666666686) translate(0 35.99999999999998)"/><use xlink:href="#y" transform="matrix(1,0,0,1,907.5,468.66666666666686) translate(4.9999999999999964 35.99999999999998)"/><use xlink:href="#K" transform="matrix(1,0,0,1,907.5,468.66666666666686) translate(15.949999999999989 35.99999999999998)"/><use xlink:href="#A" transform="matrix(1,0,0,1,907.5,468.66666666666686) translate(0 57.599999999999966)"/><use xlink:href="#B" transform="matrix(1,0,0,1,907.5,468.66666666666686) translate(44.89999999999998 57.599999999999966)"/><use xlink:href="#x" transform="matrix(1,0,0,1,907.5,468.66666666666686) translate(0 79.19999999999995)"/><use xlink:href="#y" transform="matrix(1,0,0,1,907.5,468.66666666666686) translate(4.9999999999999964 79.19999999999995)"/><use xlink:href="#L" transform="matrix(1,0,0,1,907.5,468.66666666666686) translate(15.949999999999989 79.19999999999995)"/><use xlink:href="#D" transform="matrix(1,0,0,1,907.5,468.66666666666686) translate(0 100.79999999999994)"/><use xlink:href="#E" transform="matrix(1,0,0,1,907.5,468.66666666666686) translate(35.89999999999998 100.79999999999994)"/><use xlink:href="#x" transform="matrix(1,0,0,1,907.5,468.66666666666686) translate(0 122.39999999999993)"/><use xlink:href="#y" transform="matrix(1,0,0,1,907.5,468.66666666666686) translate(4.9999999999999964 122.39999999999993)"/><use xlink:href="#M" transform="matrix(1,0,0,1,907.5,468.66666666666686) translate(15.949999999999989 122.39999999999993)"/><use xlink:href="#G" transform="matrix(1,0,0,1,907.5,468.66666666666686) translate(0 143.99999999999994)"/><use xlink:href="#x" transform="matrix(1,0,0,1,907.5,468.66666666666686) translate(0 165.5999999999999)"/><use xlink:href="#y" transform="matrix(1,0,0,1,907.5,468.66666666666686) translate(4.9999999999999964 165.5999999999999)"/><use xlink:href="#N" transform="matrix(1,0,0,1,907.5,468.66666666666686) translate(15.949999999999989 165.5999999999999)"/><use xlink:href="#I" transform="matrix(1,0,0,1,907.5,468.66666666666686) translate(0 187.19999999999993)"/></g><path d="M362.5 464.17V428.5a6 6 0 0 1 6-6h248a6 6 0 0 1 6 6v35.67z" stroke="#3a414a" fill="#fff"/><path d="M622.5 464.17V791.5a6 6 0 0 1-6 6h-248a6 6 0 0 1-6-6V464.17z" stroke="#3a414a" fill="none"/><g><use xlink:href="#a" transform="matrix(1,0,0,1,362.5,422.5) translate(55.030864197530875 25.444444444444443)"/><use xlink:href="#t" transform="matrix(1,0,0,1,362.5,422.5) translate(105.58641975308643 25.444444444444443)"/><use xlink:href="#u" transform="matrix(1,0,0,1,362.5,422.5) translate(159.41358024691357 25.444444444444443)"/><use xlink:href="#O" transform="matrix(1,0,0,1,362.5,422.5) translate(192.62345679012344 25.444444444444443)"/></g><path d="M365 464.17h255V797.5H365z" fill="#fff" fill-opacity="0"/><g><use xlink:href="#w" transform="matrix(1,0,0,1,370,469.16666666666674) translate(0 14.399999999999991)"/><use xlink:href="#x" transform="matrix(1,0,0,1,370,469.16666666666674) translate(0 35.99999999999998)"/><use xlink:href="#y" transform="matrix(1,0,0,1,370,469.16666666666674) translate(4.9999999999999964 35.99999999999998)"/><use xlink:href="#P" transform="matrix(1,0,0,1,370,469.16666666666674) translate(15.949999999999989 35.99999999999998)"/><use xlink:href="#A" transform="matrix(1,0,0,1,370,469.16666666666674) translate(0 57.599999999999966)"/><use xlink:href="#B" transform="matrix(1,0,0,1,370,469.16666666666674) translate(44.89999999999998 57.599999999999966)"/><use xlink:href="#x" transform="matrix(1,0,0,1,370,469.16666666666674) translate(0 79.19999999999995)"/><use xlink:href="#y" transform="matrix(1,0,0,1,370,469.16666666666674) translate(4.9999999999999964 79.19999999999995)"/><use xlink:href="#Q" transform="matrix(1,0,0,1,370,469.16666666666674) translate(15.949999999999989 79.19999999999995)"/><use xlink:href="#D" transform="matrix(1,0,0,1,370,469.16666666666674) translate(0 100.79999999999994)"/><use xlink:href="#E" transform="matrix(1,0,0,1,370,469.16666666666674) translate(35.89999999999998 100.79999999999994)"/><use xlink:href="#x" transform="matrix(1,0,0,1,370,469.16666666666674) translate(0 122.39999999999993)"/><use xlink:href="#y" transform="matrix(1,0,0,1,370,469.16666666666674) translate(4.9999999999999964 122.39999999999993)"/><use xlink:href="#R" transform="matrix(1,0,0,1,370,469.16666666666674) translate(15.949999999999989 122.39999999999993)"/><use xlink:href="#G" transform="matrix(1,0,0,1,370,469.16666666666674) translate(0 143.99999999999994)"/><use xlink:href="#x" transform="matrix(1,0,0,1,370,469.16666666666674) translate(0 165.5999999999999)"/><use xlink:href="#y" transform="matrix(1,0,0,1,370,469.16666666666674) translate(4.9999999999999964 165.5999999999999)"/><use xlink:href="#S" transform="matrix(1,0,0,1,370,469.16666666666674) translate(15.949999999999989 165.5999999999999)"/><use xlink:href="#I" transform="matrix(1,0,0,1,370,469.16666666666674) translate(0 187.19999999999993)"/></g><path d="M295.98 425.98V226.74a6 6 0 0 1 6-6h441.05" stroke="#3a414a" fill="none"/><path d="M295.48 426.48v-.5h1v.5z" stroke="#3a414a" stroke-width=".05" fill="#3a414a"/><path d="M757.8 220.74l-14.27 4.63v-9.27z" stroke="#3a414a" fill="#3a414a"/><defs><path fill="#3a414a" d="M33 0v-248h34V0H33" id="T"/><path fill="#3a414a" d="M117-194c89-4 53 116 60 194h-32v-121c0-31-8-49-39-48C34-167 62-67 57 0H25l-1-190h30c1 10-1 24 2 32 11-22 29-35 61-36" id="U"/><path fill="#3a414a" d="M101-234c-31-9-42 10-38 44h38v23H63V0H32v-167H5v-23h27c-7-52 17-82 69-68v24" id="V"/><path fill="#3a414a" d="M114-163C36-179 61-72 57 0H25l-1-190h30c1 12-1 29 2 39 6-27 23-49 58-41v29" id="W"/><path fill="#3a414a" d="M141-36C126-15 110 5 73 4 37 3 15-17 15-53c-1-64 63-63 125-63 3-35-9-54-41-54-24 1-41 7-42 31l-33-3c5-37 33-52 76-52 45 0 72 20 72 64v82c-1 20 7 32 28 27v20c-31 9-61-2-59-35zM48-53c0 20 12 33 32 33 41-3 63-29 60-74-43 2-92-5-92 41" id="X"/><g id="a"><use transform="matrix(0.06172839506172839,0,0,0.06172839506172839,0,0)" xlink:href="#T"/><use transform="matrix(0.06172839506172839,0,0,0.06172839506172839,6.172839506172839,0)" xlink:href="#U"/><use transform="matrix(0.06172839506172839,0,0,0.06172839506172839,18.51851851851852,0)" xlink:href="#V"/><use transform="matrix(0.06172839506172839,0,0,0.06172839506172839,24.691358024691358,0)" xlink:href="#W"/><use transform="matrix(0.06172839506172839,0,0,0.06172839506172839,32.03703703703704,0)" xlink:href="#X"/></g><path fill="#3a414a" d="M212-179c-10-28-35-45-73-45-59 0-87 40-87 99 0 60 29 101 89 101 43 0 62-24 78-52l27 14C228-24 195 4 139 4 59 4 22-46 18-125c-6-104 99-153 187-111 19 9 31 26 39 46" id="Y"/><path fill="#3a414a" d="M24 0v-261h32V0H24" id="Z"/><path fill="#3a414a" d="M84 4C-5 8 30-112 23-190h32v120c0 31 7 50 39 49 72-2 45-101 50-169h31l1 190h-30c-1-10 1-25-2-33-11 22-28 36-60 37" id="aa"/><path fill="#3a414a" d="M135-143c-3-34-86-38-87 0 15 53 115 12 119 90S17 21 10-45l28-5c4 36 97 45 98 0-10-56-113-15-118-90-4-57 82-63 122-42 12 7 21 19 24 35" id="ab"/><path fill="#3a414a" d="M59-47c-2 24 18 29 38 22v24C64 9 27 4 27-40v-127H5v-23h24l9-43h21v43h35v23H59v120" id="ac"/><path fill="#3a414a" d="M100-194c63 0 86 42 84 106H49c0 40 14 67 53 68 26 1 43-12 49-29l28 8c-11 28-37 45-77 45C44 4 14-33 15-96c1-61 26-98 85-98zm52 81c6-60-76-77-97-28-3 7-6 17-6 28h103" id="ad"/><g id="b"><use transform="matrix(0.06172839506172839,0,0,0.06172839506172839,0,0)" xlink:href="#Y"/><use transform="matrix(0.06172839506172839,0,0,0.06172839506172839,15.987654320987653,0)" xlink:href="#Z"/><use transform="matrix(0.06172839506172839,0,0,0.06172839506172839,20.864197530864196,0)" xlink:href="#aa"/><use transform="matrix(0.06172839506172839,0,0,0.06172839506172839,33.20987654320987,0)" xlink:href="#ab"/><use transform="matrix(0.06172839506172839,0,0,0.06172839506172839,44.32098765432099,0)" xlink:href="#ac"/><use transform="matrix(0.06172839506172839,0,0,0.06172839506172839,50.49382716049383,0)" xlink:href="#ad"/><use transform="matrix(0.06172839506172839,0,0,0.06172839506172839,62.839506172839506,0)" xlink:href="#W"/></g><path d="M190 0L58-211 59 0H30v-248h39L202-35l-2-213h31V0h-41" id="ae"/><path d="M33 0v-248h34V0H33" id="af"/><path d="M212-179c-10-28-35-45-73-45-59 0-87 40-87 99 0 60 29 101 89 101 43 0 62-24 78-52l27 14C228-24 195 4 139 4 59 4 22-46 18-125c-6-104 99-153 187-111 19 9 31 26 39 46" id="ag"/><g id="c"><use transform="matrix(0.05,0,0,0.05,0,0)" xlink:href="#ae"/><use transform="matrix(0.05,0,0,0.05,12.950000000000001,0)" xlink:href="#af"/><use transform="matrix(0.05,0,0,0.05,17.950000000000003,0)" xlink:href="#ag"/></g><path d="M101-251c68 0 85 55 85 127S166 4 100 4C33 4 14-52 14-124c0-73 17-127 87-127zm-1 229c47 0 54-49 54-102s-4-102-53-102c-51 0-55 48-55 102 0 53 5 102 54 102" id="ah"/><use transform="matrix(0.05,0,0,0.05,0,0)" xlink:href="#ah" id="d"/><path d="M160-131c35 5 61 23 61 61C221 17 115-2 30 0v-248c76 3 177-17 177 60 0 33-19 50-47 57zm-97-11c50-1 110 9 110-42 0-47-63-36-110-37v79zm0 115c55-2 124 14 124-45 0-56-70-42-124-44v89" id="ai"/><path d="M240 0l2-218c-23 76-54 145-80 218h-23L58-218 59 0H30v-248h44l77 211c21-75 51-140 76-211h43V0h-30" id="aj"/><g id="e"><use transform="matrix(0.05,0,0,0.05,0,0)" xlink:href="#ai"/><use transform="matrix(0.05,0,0,0.05,12,0)" xlink:href="#aj"/><use transform="matrix(0.05,0,0,0.05,26.950000000000003,0)" xlink:href="#ag"/></g><g id="f"><use transform="matrix(0.05,0,0,0.05,0,0)" xlink:href="#ai"/><use transform="matrix(0.05,0,0,0.05,12,0)" xlink:href="#aj"/><use transform="matrix(0.05,0,0,0.05,26.950000000000003,0)" xlink:href="#ag"/></g><path d="M100-194c63 0 86 42 84 106H49c0 40 14 67 53 68 26 1 43-12 49-29l28 8c-11 28-37 45-77 45C44 4 14-33 15-96c1-61 26-98 85-98zm52 81c6-60-76-77-97-28-3 7-6 17-6 28h103" id="ak"/><path d="M59-47c-2 24 18 29 38 22v24C64 9 27 4 27-40v-127H5v-23h24l9-43h21v43h35v23H59v120" id="al"/><path d="M206 0h-36l-40-164L89 0H53L-1-190h32L70-26l43-164h34l41 164 42-164h31" id="am"/><path d="M100-194c62-1 85 37 85 99 1 63-27 99-86 99S16-35 15-95c0-66 28-99 85-99zM99-20c44 1 53-31 53-75 0-43-8-75-51-75s-53 32-53 75 10 74 51 75" id="an"/><path d="M114-163C36-179 61-72 57 0H25l-1-190h30c1 12-1 29 2 39 6-27 23-49 58-41v29" id="ao"/><path d="M143 0L79-87 56-68V0H24v-261h32v163l83-92h37l-77 82L181 0h-38" id="ap"/><g id="g"><use transform="matrix(0.05,0,0,0.05,0,0)" xlink:href="#ae"/><use transform="matrix(0.05,0,0,0.05,12.950000000000001,0)" xlink:href="#ak"/><use transform="matrix(0.05,0,0,0.05,22.950000000000003,0)" xlink:href="#al"/><use transform="matrix(0.05,0,0,0.05,27.950000000000003,0)" xlink:href="#am"/><use transform="matrix(0.05,0,0,0.05,40.900000000000006,0)" xlink:href="#an"/><use transform="matrix(0.05,0,0,0.05,50.900000000000006,0)" xlink:href="#ao"/><use transform="matrix(0.05,0,0,0.05,56.85,0)" xlink:href="#ap"/></g><path d="M137 0h-34L2-248h35l83 218 83-218h36" id="aq"/><path d="M30 0v-248h33v221h125V0H30" id="ar"/><path d="M205 0l-28-72H64L36 0H1l101-248h38L239 0h-34zm-38-99l-47-123c-12 45-31 82-46 123h93" id="as"/><path d="M33-154v-36h34v36H33zM33 0v-36h34V0H33" id="at"/><g id="i"><use transform="matrix(0.0685185185185185,0,0,0.0685185185185185,0,0)" xlink:href="#aq"/><use transform="matrix(0.0685185185185185,0,0,0.0685185185185185,16.444444444444443,0)" xlink:href="#ar"/><use transform="matrix(0.0685185185185185,0,0,0.0685185185185185,30.148148148148145,0)" xlink:href="#as"/><use transform="matrix(0.0685185185185185,0,0,0.0685185185185185,46.59259259259258,0)" xlink:href="#ae"/><use transform="matrix(0.0685185185185185,0,0,0.0685185185185185,64.33888888888887,0)" xlink:href="#at"/></g><path d="M101-251c82-7 93 87 43 132L82-64C71-53 59-42 53-27h129V0H18c2-99 128-94 128-182 0-28-16-43-45-43s-46 15-49 41l-32-3c6-41 34-60 81-64" id="au"/><path d="M27 0v-27h64v-190l-56 39v-29l58-41h29v221h61V0H27" id="av"/><path d="M64 0c3-98 48-159 88-221H18v-27h164v26C143-157 98-101 97 0H64" id="aw"/><g id="j"><use transform="matrix(0.0685185185185185,0,0,0.0685185185185185,0,0)" xlink:href="#au"/><use transform="matrix(0.0685185185185185,0,0,0.0685185185185185,13.7037037037037,0)" xlink:href="#av"/><use transform="matrix(0.0685185185185185,0,0,0.0685185185185185,27.4074074074074,0)" xlink:href="#aw"/><use transform="matrix(0.0685185185185185,0,0,0.0685185185185185,41.11111111111111,0)" xlink:href="#ah"/></g><path d="M30-248c118-7 216 8 213 122C240-48 200 0 122 0H30v-248zM63-27c89 8 146-16 146-99s-60-101-146-95v194" id="ax"/><path d="M233-177c-1 41-23 64-60 70L243 0h-38l-65-103H63V0H30v-248c88 3 205-21 203 71zM63-129c60-2 137 13 137-47 0-61-80-42-137-45v92" id="ay"/><g id="k"><use transform="matrix(0.0685185185185185,0,0,0.0685185185185185,0,0)" xlink:href="#ag"/><use transform="matrix(0.0685185185185185,0,0,0.0685185185185185,17.746296296296293,0)" xlink:href="#af"/><use transform="matrix(0.0685185185185185,0,0,0.0685185185185185,24.598148148148145,0)" xlink:href="#ax"/><use transform="matrix(0.0685185185185185,0,0,0.0685185185185185,42.344444444444434,0)" xlink:href="#ay"/><use transform="matrix(0.0685185185185185,0,0,0.0685185185185185,60.09074074074073,0)" xlink:href="#at"/></g><path d="M33 0v-38h34V0H33" id="az"/><path d="M126-127c33 6 58 20 58 59 0 88-139 92-164 29-3-8-5-16-6-25l32-3c6 27 21 44 54 44 32 0 52-15 52-46 0-38-36-46-79-43v-28c39 1 72-4 72-42 0-27-17-43-46-43-28 0-47 15-49 41l-32-3c6-42 35-63 81-64 48-1 79 21 79 65 0 36-21 52-52 59" id="aA"/><path d="M0 4l72-265h28L28 4H0" id="aB"/><g id="l"><use transform="matrix(0.0685185185185185,0,0,0.0685185185185185,0,0)" xlink:href="#av"/><use transform="matrix(0.0685185185185185,0,0,0.0685185185185185,13.7037037037037,0)" xlink:href="#ah"/><use transform="matrix(0.0685185185185185,0,0,0.0685185185185185,27.4074074074074,0)" xlink:href="#az"/><use transform="matrix(0.0685185185185185,0,0,0.0685185185185185,34.25925925925925,0)" xlink:href="#aA"/><use transform="matrix(0.0685185185185185,0,0,0.0685185185185185,47.962962962962955,0)" xlink:href="#ah"/><use transform="matrix(0.0685185185185185,0,0,0.0685185185185185,61.66666666666666,0)" xlink:href="#az"/><use transform="matrix(0.0685185185185185,0,0,0.0685185185185185,68.5185185185185,0)" xlink:href="#ah"/><use transform="matrix(0.0685185185185185,0,0,0.0685185185185185,82.22222222222221,0)" xlink:href="#az"/><use transform="matrix(0.0685185185185185,0,0,0.0685185185185185,89.07407407407405,0)" xlink:href="#ah"/><use transform="matrix(0.0685185185185185,0,0,0.0685185185185185,102.77777777777774,0)" xlink:href="#aB"/><use transform="matrix(0.0685185185185185,0,0,0.0685185185185185,109.62962962962959,0)" xlink:href="#au"/><use transform="matrix(0.0685185185185185,0,0,0.0685185185185185,123.33333333333329,0)" xlink:href="#au"/></g><path d="M143 4C61 4 22-44 18-125c-5-107 100-154 193-111 17 8 29 25 37 43l-32 9c-13-25-37-40-76-40-61 0-88 39-88 99 0 61 29 100 91 101 35 0 62-11 79-27v-45h-74v-28h105v86C228-13 192 4 143 4" id="aC"/><path d="M141-36C126-15 110 5 73 4 37 3 15-17 15-53c-1-64 63-63 125-63 3-35-9-54-41-54-24 1-41 7-42 31l-33-3c5-37 33-52 76-52 45 0 72 20 72 64v82c-1 20 7 32 28 27v20c-31 9-61-2-59-35zM48-53c0 20 12 33 32 33 41-3 63-29 60-74-43 2-92-5-92 41" id="aD"/><path d="M179-190L93 31C79 59 56 82 12 73V49c39 6 53-20 64-50L1-190h34L92-34l54-156h33" id="aE"/><g id="m"><use transform="matrix(0.0685185185185185,0,0,0.0685185185185185,0,0)" xlink:href="#aC"/><use transform="matrix(0.0685185185185185,0,0,0.0685185185185185,19.185185185185183,0)" xlink:href="#aD"/><use transform="matrix(0.0685185185185185,0,0,0.0685185185185185,32.888888888888886,0)" xlink:href="#al"/><use transform="matrix(0.0685185185185185,0,0,0.0685185185185185,39.74074074074073,0)" xlink:href="#ak"/><use transform="matrix(0.0685185185185185,0,0,0.0685185185185185,53.444444444444436,0)" xlink:href="#am"/><use transform="matrix(0.0685185185185185,0,0,0.0685185185185185,71.19074074074072,0)" xlink:href="#aD"/><use transform="matrix(0.0685185185185185,0,0,0.0685185185185185,84.89444444444442,0)" xlink:href="#aE"/><use transform="matrix(0.0685185185185185,0,0,0.0685185185185185,97.22777777777775,0)" xlink:href="#at"/></g><g id="n"><use transform="matrix(0.0685185185185185,0,0,0.0685185185185185,0,0)" xlink:href="#av"/><use transform="matrix(0.0685185185185185,0,0,0.0685185185185185,13.7037037037037,0)" xlink:href="#ah"/><use transform="matrix(0.0685185185185185,0,0,0.0685185185185185,27.4074074074074,0)" xlink:href="#az"/><use transform="matrix(0.0685185185185185,0,0,0.0685185185185185,34.25925925925925,0)" xlink:href="#aA"/><use transform="matrix(0.0685185185185185,0,0,0.0685185185185185,47.962962962962955,0)" xlink:href="#ah"/><use transform="matrix(0.0685185185185185,0,0,0.0685185185185185,61.66666666666666,0)" xlink:href="#az"/><use transform="matrix(0.0685185185185185,0,0,0.0685185185185185,68.5185185185185,0)" xlink:href="#ah"/><use transform="matrix(0.0685185185185185,0,0,0.0685185185185185,82.22222222222221,0)" xlink:href="#az"/><use transform="matrix(0.0685185185185185,0,0,0.0685185185185185,89.07407407407405,0)" xlink:href="#av"/></g><path d="M117-194c89-4 53 116 60 194h-32v-121c0-31-8-49-39-48C34-167 62-67 57 0H25l-1-190h30c1 10-1 24 2 32 11-22 29-35 61-36" id="aF"/><path d="M101-234c-31-9-42 10-38 44h38v23H63V0H32v-167H5v-23h27c-7-52 17-82 69-68v24" id="aG"/><g id="o"><use transform="matrix(0.05,0,0,0.05,0,0)" xlink:href="#af"/><use transform="matrix(0.05,0,0,0.05,5,0)" xlink:href="#aF"/><use transform="matrix(0.05,0,0,0.05,15,0)" xlink:href="#aG"/><use transform="matrix(0.05,0,0,0.05,20,0)" xlink:href="#ao"/><use transform="matrix(0.05,0,0,0.05,25.950000000000003,0)" xlink:href="#aD"/></g><path d="M210-169c-67 3-38 105-44 169h-31v-121c0-29-5-50-35-48C34-165 62-65 56 0H25l-1-190h30c1 10-1 24 2 32 10-44 99-50 107 0 11-21 27-35 58-36 85-2 47 119 55 194h-31v-121c0-29-5-49-35-48" id="aH"/><path d="M24 0v-261h32V0H24" id="aI"/><g id="p"><use transform="matrix(0.05,0,0,0.05,0,0)" xlink:href="#ai"/><use transform="matrix(0.05,0,0,0.05,12,0)" xlink:href="#aD"/><use transform="matrix(0.05,0,0,0.05,22,0)" xlink:href="#ao"/><use transform="matrix(0.05,0,0,0.05,27.950000000000003,0)" xlink:href="#ak"/><use transform="matrix(0.05,0,0,0.05,37.95,0)" xlink:href="#aH"/><use transform="matrix(0.05,0,0,0.05,52.900000000000006,0)" xlink:href="#ak"/><use transform="matrix(0.05,0,0,0.05,62.900000000000006,0)" xlink:href="#al"/><use transform="matrix(0.05,0,0,0.05,67.9,0)" xlink:href="#aD"/><use transform="matrix(0.05,0,0,0.05,77.9,0)" xlink:href="#aI"/></g><path d="M110-160c48 1 74 30 74 79 0 53-28 85-80 85-65 0-83-55-86-122-5-90 50-162 133-122 14 7 22 21 27 39l-31 6c-5-40-67-38-82-6-9 19-15 44-15 74 11-20 30-34 60-33zm-7 138c34 0 49-23 49-58s-16-56-50-56c-29 0-50 16-49 49 1 36 15 65 50 65" id="aJ"/><g id="q"><use transform="matrix(0.0685185185185185,0,0,0.0685185185185185,0,0)" xlink:href="#au"/><use transform="matrix(0.0685185185185185,0,0,0.0685185185185185,13.7037037037037,0)" xlink:href="#av"/><use transform="matrix(0.0685185185185185,0,0,0.0685185185185185,27.4074074074074,0)" xlink:href="#aw"/><use transform="matrix(0.0685185185185185,0,0,0.0685185185185185,41.11111111111111,0)" xlink:href="#aJ"/></g><path d="M99-251c64 0 84 50 84 122C183-37 130 33 47-8c-14-7-20-23-25-40l30-5c6 39 69 39 84 7 9-19 16-44 16-74-10 22-31 35-62 35-49 0-73-33-73-83 0-54 28-83 82-83zm-1 141c31-1 51-18 51-49 0-36-14-67-51-67-34 0-49 23-49 58 0 34 15 58 49 58" id="aK"/><path d="M155-56V0h-30v-56H8v-25l114-167h33v167h35v25h-35zm-30-156c-27 46-58 90-88 131h88v-131" id="aL"/><g id="r"><use transform="matrix(0.0685185185185185,0,0,0.0685185185185185,0,0)" xlink:href="#av"/><use transform="matrix(0.0685185185185185,0,0,0.0685185185185185,13.7037037037037,0)" xlink:href="#ah"/><use transform="matrix(0.0685185185185185,0,0,0.0685185185185185,27.4074074074074,0)" xlink:href="#az"/><use transform="matrix(0.0685185185185185,0,0,0.0685185185185185,34.25925925925925,0)" xlink:href="#aA"/><use transform="matrix(0.0685185185185185,0,0,0.0685185185185185,47.962962962962955,0)" xlink:href="#ah"/><use transform="matrix(0.0685185185185185,0,0,0.0685185185185185,61.66666666666666,0)" xlink:href="#az"/><use transform="matrix(0.0685185185185185,0,0,0.0685185185185185,68.5185185185185,0)" xlink:href="#aK"/><use transform="matrix(0.0685185185185185,0,0,0.0685185185185185,82.22222222222221,0)" xlink:href="#az"/><use transform="matrix(0.0685185185185185,0,0,0.0685185185185185,89.07407407407405,0)" xlink:href="#ah"/><use transform="matrix(0.0685185185185185,0,0,0.0685185185185185,102.77777777777774,0)" xlink:href="#aB"/><use transform="matrix(0.0685185185185185,0,0,0.0685185185185185,109.62962962962959,0)" xlink:href="#au"/><use transform="matrix(0.0685185185185185,0,0,0.0685185185185185,123.33333333333329,0)" xlink:href="#aL"/></g><g id="s"><use transform="matrix(0.0685185185185185,0,0,0.0685185185185185,0,0)" xlink:href="#av"/><use transform="matrix(0.0685185185185185,0,0,0.0685185185185185,13.7037037037037,0)" xlink:href="#ah"/><use transform="matrix(0.0685185185185185,0,0,0.0685185185185185,27.4074074074074,0)" xlink:href="#az"/><use transform="matrix(0.0685185185185185,0,0,0.0685185185185185,34.25925925925925,0)" xlink:href="#aA"/><use transform="matrix(0.0685185185185185,0,0,0.0685185185185185,47.962962962962955,0)" xlink:href="#ah"/><use transform="matrix(0.0685185185185185,0,0,0.0685185185185185,61.66666666666666,0)" xlink:href="#az"/><use transform="matrix(0.0685185185185185,0,0,0.0685185185185185,68.5185185185185,0)" xlink:href="#aK"/><use transform="matrix(0.0685185185185185,0,0,0.0685185185185185,82.22222222222221,0)" xlink:href="#az"/><use transform="matrix(0.0685185185185185,0,0,0.0685185185185185,89.07407407407405,0)" xlink:href="#av"/></g><path fill="#3a414a" d="M140-251c81 0 123 46 123 126C263-46 219 4 140 4 59 4 17-45 17-125s42-126 123-126zm0 227c63 0 89-41 89-101s-29-99-89-99c-61 0-89 39-89 99S79-25 140-24" id="aM"/><path fill="#3a414a" d="M30-248c87 1 191-15 191 75 0 78-77 80-158 76V0H30v-248zm33 125c57 0 124 11 124-50 0-59-68-47-124-48v98" id="aN"/><g id="t"><use transform="matrix(0.06172839506172839,0,0,0.06172839506172839,0,0)" xlink:href="#aM"/><use transform="matrix(0.06172839506172839,0,0,0.06172839506172839,17.28395061728395,0)" xlink:href="#Y"/><use transform="matrix(0.06172839506172839,0,0,0.06172839506172839,33.2716049382716,0)" xlink:href="#aN"/></g><g id="u"><use transform="matrix(0.06172839506172839,0,0,0.06172839506172839,0,0)" xlink:href="#Y"/><use transform="matrix(0.06172839506172839,0,0,0.06172839506172839,15.987654320987653,0)" xlink:href="#ac"/><use transform="matrix(0.06172839506172839,0,0,0.06172839506172839,22.160493827160494,0)" xlink:href="#Z"/></g><path fill="#3a414a" d="M101-251c82-7 93 87 43 132L82-64C71-53 59-42 53-27h129V0H18c2-99 128-94 128-182 0-28-16-43-45-43s-46 15-49 41l-32-3c6-41 34-60 81-64" id="aO"/><use transform="matrix(0.06172839506172839,0,0,0.06172839506172839,0,0)" xlink:href="#aO" id="v"/><path d="M197 0v-115H63V0H30v-248h33v105h134v-105h34V0h-34" id="aP"/><path d="M135-143c-3-34-86-38-87 0 15 53 115 12 119 90S17 21 10-45l28-5c4 36 97 45 98 0-10-56-113-15-118-90-4-57 82-63 122-42 12 7 21 19 24 35" id="aQ"/><g id="w"><use transform="matrix(0.04999999999999997,0,0,0.04999999999999997,0,0)" xlink:href="#aP"/><use transform="matrix(0.04999999999999997,0,0,0.04999999999999997,12.949999999999992,0)" xlink:href="#an"/><use transform="matrix(0.04999999999999997,0,0,0.04999999999999997,22.949999999999985,0)" xlink:href="#aQ"/><use transform="matrix(0.04999999999999997,0,0,0.04999999999999997,31.949999999999978,0)" xlink:href="#al"/><use transform="matrix(0.04999999999999997,0,0,0.04999999999999997,36.949999999999974,0)" xlink:href="#ae"/><use transform="matrix(0.04999999999999997,0,0,0.04999999999999997,49.89999999999996,0)" xlink:href="#aD"/><use transform="matrix(0.04999999999999997,0,0,0.04999999999999997,59.89999999999995,0)" xlink:href="#aH"/><use transform="matrix(0.04999999999999997,0,0,0.04999999999999997,74.84999999999995,0)" xlink:href="#ak"/><use transform="matrix(0.04999999999999997,0,0,0.04999999999999997,84.84999999999994,0)" xlink:href="#at"/></g><path d="M16-82v-28h88v28H16" id="aR"/><use transform="matrix(0.04999999999999997,0,0,0.04999999999999997,0,0)" xlink:href="#aR" id="y"/><path d="M96-169c-40 0-48 33-48 73s9 75 48 75c24 0 41-14 43-38l32 2c-6 37-31 61-74 61-59 0-76-41-82-99-10-93 101-131 147-64 4 7 5 14 7 22l-32 3c-4-21-16-35-41-35" id="aS"/><path d="M115-194c55 1 70 41 70 98S169 2 115 4C84 4 66-9 55-30l1 105H24l-1-265h31l2 30c10-21 28-34 59-34zm-8 174c40 0 45-34 45-75s-6-73-45-74c-42 0-51 32-51 76 0 43 10 73 51 73" id="aT"/><path d="M24-231v-30h32v30H24zM24 0v-190h32V0H24" id="aU"/><g id="z"><use transform="matrix(0.04999999999999997,0,0,0.04999999999999997,0,0)" xlink:href="#aS"/><use transform="matrix(0.04999999999999997,0,0,0.04999999999999997,8.999999999999995,0)" xlink:href="#al"/><use transform="matrix(0.04999999999999997,0,0,0.04999999999999997,13.999999999999991,0)" xlink:href="#aI"/><use transform="matrix(0.04999999999999997,0,0,0.04999999999999997,17.94999999999999,0)" xlink:href="#aR"/><use transform="matrix(0.04999999999999997,0,0,0.04999999999999997,23.899999999999984,0)" xlink:href="#au"/><use transform="matrix(0.04999999999999997,0,0,0.04999999999999997,33.89999999999998,0)" xlink:href="#az"/><use transform="matrix(0.04999999999999997,0,0,0.04999999999999997,38.89999999999998,0)" xlink:href="#aF"/><use transform="matrix(0.04999999999999997,0,0,0.04999999999999997,48.89999999999997,0)" xlink:href="#ak"/><use transform="matrix(0.04999999999999997,0,0,0.04999999999999997,58.89999999999996,0)" xlink:href="#ao"/><use transform="matrix(0.04999999999999997,0,0,0.04999999999999997,64.84999999999997,0)" xlink:href="#aS"/><use transform="matrix(0.04999999999999997,0,0,0.04999999999999997,73.84999999999997,0)" xlink:href="#aR"/><use transform="matrix(0.04999999999999997,0,0,0.04999999999999997,79.79999999999997,0)" xlink:href="#an"/><use transform="matrix(0.04999999999999997,0,0,0.04999999999999997,89.79999999999995,0)" xlink:href="#aS"/><use transform="matrix(0.04999999999999997,0,0,0.04999999999999997,98.79999999999995,0)" xlink:href="#aT"/><use transform="matrix(0.04999999999999997,0,0,0.04999999999999997,108.79999999999995,0)" xlink:href="#aR"/><use transform="matrix(0.04999999999999997,0,0,0.04999999999999997,114.74999999999994,0)" xlink:href="#aU"/><use transform="matrix(0.04999999999999997,0,0,0.04999999999999997,118.69999999999997,0)" xlink:href="#aF"/><use transform="matrix(0.04999999999999997,0,0,0.04999999999999997,128.69999999999996,0)" xlink:href="#aG"/><use transform="matrix(0.04999999999999997,0,0,0.04999999999999997,133.69999999999996,0)" xlink:href="#ao"/><use transform="matrix(0.04999999999999997,0,0,0.04999999999999997,139.64999999999995,0)" xlink:href="#aD"/></g><g id="A"><use transform="matrix(0.04999999999999997,0,0,0.04999999999999997,0,0)" xlink:href="#ai"/><use transform="matrix(0.04999999999999997,0,0,0.04999999999999997,11.999999999999993,0)" xlink:href="#aj"/><use transform="matrix(0.04999999999999997,0,0,0.04999999999999997,26.94999999999998,0)" xlink:href="#ag"/></g><g id="B"><use transform="matrix(0.04999999999999997,0,0,0.04999999999999997,0,0)" xlink:href="#aP"/><use transform="matrix(0.04999999999999997,0,0,0.04999999999999997,12.949999999999992,0)" xlink:href="#an"/><use transform="matrix(0.04999999999999997,0,0,0.04999999999999997,22.949999999999985,0)" xlink:href="#aQ"/><use transform="matrix(0.04999999999999997,0,0,0.04999999999999997,31.949999999999978,0)" xlink:href="#al"/><use transform="matrix(0.04999999999999997,0,0,0.04999999999999997,36.949999999999974,0)" xlink:href="#ae"/><use transform="matrix(0.04999999999999997,0,0,0.04999999999999997,49.89999999999996,0)" xlink:href="#aD"/><use transform="matrix(0.04999999999999997,0,0,0.04999999999999997,59.89999999999995,0)" xlink:href="#aH"/><use transform="matrix(0.04999999999999997,0,0,0.04999999999999997,74.84999999999995,0)" xlink:href="#ak"/><use transform="matrix(0.04999999999999997,0,0,0.04999999999999997,84.84999999999994,0)" xlink:href="#at"/></g><path d="M115-194c53 0 69 39 70 98 0 66-23 100-70 100C84 3 66-7 56-30L54 0H23l1-261h32v101c10-23 28-34 59-34zm-8 174c40 0 45-34 45-75 0-40-5-75-45-74-42 0-51 32-51 76 0 43 10 73 51 73" id="aV"/><g id="C"><use transform="matrix(0.04999999999999997,0,0,0.04999999999999997,0,0)" xlink:href="#aS"/><use transform="matrix(0.04999999999999997,0,0,0.04999999999999997,8.999999999999995,0)" xlink:href="#al"/><use transform="matrix(0.04999999999999997,0,0,0.04999999999999997,13.999999999999991,0)" xlink:href="#aI"/><use transform="matrix(0.04999999999999997,0,0,0.04999999999999997,17.94999999999999,0)" xlink:href="#aR"/><use transform="matrix(0.04999999999999997,0,0,0.04999999999999997,23.899999999999984,0)" xlink:href="#au"/><use transform="matrix(0.04999999999999997,0,0,0.04999999999999997,33.89999999999998,0)" xlink:href="#aR"/><use transform="matrix(0.04999999999999997,0,0,0.04999999999999997,39.84999999999997,0)" xlink:href="#an"/><use transform="matrix(0.04999999999999997,0,0,0.04999999999999997,49.849999999999966,0)" xlink:href="#aV"/><use transform="matrix(0.04999999999999997,0,0,0.04999999999999997,59.84999999999996,0)" xlink:href="#aH"/><use transform="matrix(0.04999999999999997,0,0,0.04999999999999997,74.79999999999995,0)" xlink:href="#az"/><use transform="matrix(0.04999999999999997,0,0,0.04999999999999997,79.79999999999995,0)" xlink:href="#aF"/><use transform="matrix(0.04999999999999997,0,0,0.04999999999999997,89.79999999999995,0)" xlink:href="#ak"/><use transform="matrix(0.04999999999999997,0,0,0.04999999999999997,99.79999999999995,0)" xlink:href="#ao"/><use transform="matrix(0.04999999999999997,0,0,0.04999999999999997,105.74999999999996,0)" xlink:href="#aS"/><use transform="matrix(0.04999999999999997,0,0,0.04999999999999997,114.74999999999994,0)" xlink:href="#aR"/><use transform="matrix(0.04999999999999997,0,0,0.04999999999999997,120.69999999999997,0)" xlink:href="#an"/><use transform="matrix(0.04999999999999997,0,0,0.04999999999999997,130.69999999999996,0)" xlink:href="#aS"/><use transform="matrix(0.04999999999999997,0,0,0.04999999999999997,139.69999999999996,0)" xlink:href="#aT"/><use transform="matrix(0.04999999999999997,0,0,0.04999999999999997,149.69999999999996,0)" xlink:href="#aR"/><use transform="matrix(0.04999999999999997,0,0,0.04999999999999997,155.64999999999995,0)" xlink:href="#aU"/><use transform="matrix(0.04999999999999997,0,0,0.04999999999999997,159.59999999999994,0)" xlink:href="#aF"/><use transform="matrix(0.04999999999999997,0,0,0.04999999999999997,169.59999999999994,0)" xlink:href="#aG"/><use transform="matrix(0.04999999999999997,0,0,0.04999999999999997,174.59999999999994,0)" xlink:href="#ao"/><use transform="matrix(0.04999999999999997,0,0,0.04999999999999997,180.54999999999993,0)" xlink:href="#aD"/></g><g id="D"><use transform="matrix(0.04999999999999997,0,0,0.04999999999999997,0,0)" xlink:href="#ae"/><use transform="matrix(0.04999999999999997,0,0,0.04999999999999997,12.949999999999992,0)" xlink:href="#af"/><use transform="matrix(0.04999999999999997,0,0,0.04999999999999997,17.94999999999999,0)" xlink:href="#ag"/></g><g id="E"><use transform="matrix(0.04999999999999997,0,0,0.04999999999999997,0,0)" xlink:href="#ah"/><use transform="matrix(0.04999999999999997,0,0,0.04999999999999997,9.999999999999993,0)" xlink:href="#at"/></g><g id="F"><use transform="matrix(0.04999999999999997,0,0,0.04999999999999997,0,0)" xlink:href="#av"/><use transform="matrix(0.04999999999999997,0,0,0.04999999999999997,9.999999999999993,0)" xlink:href="#ah"/><use transform="matrix(0.04999999999999997,0,0,0.04999999999999997,19.999999999999986,0)" xlink:href="#az"/><use transform="matrix(0.04999999999999997,0,0,0.04999999999999997,24.999999999999982,0)" xlink:href="#aA"/><use transform="matrix(0.04999999999999997,0,0,0.04999999999999997,34.99999999999997,0)" xlink:href="#ah"/><use transform="matrix(0.04999999999999997,0,0,0.04999999999999997,44.999999999999964,0)" xlink:href="#az"/><use transform="matrix(0.04999999999999997,0,0,0.04999999999999997,49.99999999999996,0)" xlink:href="#aK"/><use transform="matrix(0.04999999999999997,0,0,0.04999999999999997,59.99999999999995,0)" xlink:href="#az"/><use transform="matrix(0.04999999999999997,0,0,0.04999999999999997,64.99999999999994,0)" xlink:href="#aK"/></g><g id="G"><use transform="matrix(0.04999999999999997,0,0,0.04999999999999997,0,0)" xlink:href="#ai"/><use transform="matrix(0.04999999999999997,0,0,0.04999999999999997,11.999999999999993,0)" xlink:href="#aj"/><use transform="matrix(0.04999999999999997,0,0,0.04999999999999997,26.94999999999998,0)" xlink:href="#ag"/><use transform="matrix(0.04999999999999997,0,0,0.04999999999999997,39.89999999999998,0)" xlink:href="#at"/></g><g id="H"><use transform="matrix(0.04999999999999997,0,0,0.04999999999999997,0,0)" xlink:href="#av"/><use transform="matrix(0.04999999999999997,0,0,0.04999999999999997,9.999999999999993,0)" xlink:href="#ah"/><use transform="matrix(0.04999999999999997,0,0,0.04999999999999997,19.999999999999986,0)" xlink:href="#az"/><use transform="matrix(0.04999999999999997,0,0,0.04999999999999997,24.999999999999982,0)" xlink:href="#aA"/><use transform="matrix(0.04999999999999997,0,0,0.04999999999999997,34.99999999999997,0)" xlink:href="#ah"/><use transform="matrix(0.04999999999999997,0,0,0.04999999999999997,44.999999999999964,0)" xlink:href="#az"/><use transform="matrix(0.04999999999999997,0,0,0.04999999999999997,49.99999999999996,0)" xlink:href="#ah"/><use transform="matrix(0.04999999999999997,0,0,0.04999999999999997,59.99999999999995,0)" xlink:href="#az"/><use transform="matrix(0.04999999999999997,0,0,0.04999999999999997,64.99999999999994,0)" xlink:href="#aK"/></g><path fill="#3a414a" d="M27 0v-27h64v-190l-56 39v-29l58-41h29v221h61V0H27" id="aW"/><use transform="matrix(0.06172839506172839,0,0,0.06172839506172839,0,0)" xlink:href="#aW" id="J"/><g id="K"><use transform="matrix(0.04999999999999997,0,0,0.04999999999999997,0,0)" xlink:href="#aS"/><use transform="matrix(0.04999999999999997,0,0,0.04999999999999997,8.999999999999995,0)" xlink:href="#al"/><use transform="matrix(0.04999999999999997,0,0,0.04999999999999997,13.999999999999991,0)" xlink:href="#aI"/><use transform="matrix(0.04999999999999997,0,0,0.04999999999999997,17.94999999999999,0)" xlink:href="#aR"/><use transform="matrix(0.04999999999999997,0,0,0.04999999999999997,23.899999999999984,0)" xlink:href="#av"/><use transform="matrix(0.04999999999999997,0,0,0.04999999999999997,33.89999999999998,0)" xlink:href="#az"/><use transform="matrix(0.04999999999999997,0,0,0.04999999999999997,38.89999999999998,0)" xlink:href="#aF"/><use transform="matrix(0.04999999999999997,0,0,0.04999999999999997,48.89999999999997,0)" xlink:href="#ak"/><use transform="matrix(0.04999999999999997,0,0,0.04999999999999997,58.89999999999996,0)" xlink:href="#ao"/><use transform="matrix(0.04999999999999997,0,0,0.04999999999999997,64.84999999999997,0)" xlink:href="#aS"/><use transform="matrix(0.04999999999999997,0,0,0.04999999999999997,73.84999999999997,0)" xlink:href="#aR"/><use transform="matrix(0.04999999999999997,0,0,0.04999999999999997,79.79999999999997,0)" xlink:href="#an"/><use transform="matrix(0.04999999999999997,0,0,0.04999999999999997,89.79999999999995,0)" xlink:href="#aS"/><use transform="matrix(0.04999999999999997,0,0,0.04999999999999997,98.79999999999995,0)" xlink:href="#aT"/><use transform="matrix(0.04999999999999997,0,0,0.04999999999999997,108.79999999999995,0)" xlink:href="#aR"/><use transform="matrix(0.04999999999999997,0,0,0.04999999999999997,114.74999999999994,0)" xlink:href="#aU"/><use transform="matrix(0.04999999999999997,0,0,0.04999999999999997,118.69999999999997,0)" xlink:href="#aF"/><use transform="matrix(0.04999999999999997,0,0,0.04999999999999997,128.69999999999996,0)" xlink:href="#aG"/><use transform="matrix(0.04999999999999997,0,0,0.04999999999999997,133.69999999999996,0)" xlink:href="#ao"/><use transform="matrix(0.04999999999999997,0,0,0.04999999999999997,139.64999999999995,0)" xlink:href="#aD"/></g><g id="L"><use transform="matrix(0.04999999999999997,0,0,0.04999999999999997,0,0)" xlink:href="#aS"/><use transform="matrix(0.04999999999999997,0,0,0.04999999999999997,8.999999999999995,0)" xlink:href="#al"/><use transform="matrix(0.04999999999999997,0,0,0.04999999999999997,13.999999999999991,0)" xlink:href="#aI"/><use transform="matrix(0.04999999999999997,0,0,0.04999999999999997,17.94999999999999,0)" xlink:href="#aR"/><use transform="matrix(0.04999999999999997,0,0,0.04999999999999997,23.899999999999984,0)" xlink:href="#av"/><use transform="matrix(0.04999999999999997,0,0,0.04999999999999997,33.89999999999998,0)" xlink:href="#aR"/><use transform="matrix(0.04999999999999997,0,0,0.04999999999999997,39.84999999999997,0)" xlink:href="#an"/><use transform="matrix(0.04999999999999997,0,0,0.04999999999999997,49.849999999999966,0)" xlink:href="#aV"/><use transform="matrix(0.04999999999999997,0,0,0.04999999999999997,59.84999999999996,0)" xlink:href="#aH"/><use transform="matrix(0.04999999999999997,0,0,0.04999999999999997,74.79999999999995,0)" xlink:href="#az"/><use transform="matrix(0.04999999999999997,0,0,0.04999999999999997,79.79999999999995,0)" xlink:href="#aF"/><use transform="matrix(0.04999999999999997,0,0,0.04999999999999997,89.79999999999995,0)" xlink:href="#ak"/><use transform="matrix(0.04999999999999997,0,0,0.04999999999999997,99.79999999999995,0)" xlink:href="#ao"/><use transform="matrix(0.04999999999999997,0,0,0.04999999999999997,105.74999999999996,0)" xlink:href="#aS"/><use transform="matrix(0.04999999999999997,0,0,0.04999999999999997,114.74999999999994,0)" xlink:href="#aR"/><use transform="matrix(0.04999999999999997,0,0,0.04999999999999997,120.69999999999997,0)" xlink:href="#an"/><use transform="matrix(0.04999999999999997,0,0,0.04999999999999997,130.69999999999996,0)" xlink:href="#aS"/><use transform="matrix(0.04999999999999997,0,0,0.04999999999999997,139.69999999999996,0)" xlink:href="#aT"/><use transform="matrix(0.04999999999999997,0,0,0.04999999999999997,149.69999999999996,0)" xlink:href="#aR"/><use transform="matrix(0.04999999999999997,0,0,0.04999999999999997,155.64999999999995,0)" xlink:href="#aU"/><use transform="matrix(0.04999999999999997,0,0,0.04999999999999997,159.59999999999994,0)" xlink:href="#aF"/><use transform="matrix(0.04999999999999997,0,0,0.04999999999999997,169.59999999999994,0)" xlink:href="#aG"/><use transform="matrix(0.04999999999999997,0,0,0.04999999999999997,174.59999999999994,0)" xlink:href="#ao"/><use transform="matrix(0.04999999999999997,0,0,0.04999999999999997,180.54999999999993,0)" xlink:href="#aD"/></g><path d="M134-131c28 9 52 24 51 62-1 50-34 73-85 73S17-19 16-69c0-36 21-54 49-61-75-25-45-126 34-121 46 3 78 18 79 63 0 33-17 51-44 57zm-34-11c31 1 46-15 46-44 0-28-17-43-47-42-29 0-46 13-45 42 1 28 16 44 46 44zm1 122c35 0 51-18 51-52 0-30-18-46-53-46-33 0-51 17-51 47 0 34 19 51 53 51" id="aX"/><g id="M"><use transform="matrix(0.04999999999999997,0,0,0.04999999999999997,0,0)" xlink:href="#av"/><use transform="matrix(0.04999999999999997,0,0,0.04999999999999997,9.999999999999993,0)" xlink:href="#ah"/><use transform="matrix(0.04999999999999997,0,0,0.04999999999999997,19.999999999999986,0)" xlink:href="#az"/><use transform="matrix(0.04999999999999997,0,0,0.04999999999999997,24.999999999999982,0)" xlink:href="#aA"/><use transform="matrix(0.04999999999999997,0,0,0.04999999999999997,34.99999999999997,0)" xlink:href="#ah"/><use transform="matrix(0.04999999999999997,0,0,0.04999999999999997,44.999999999999964,0)" xlink:href="#az"/><use transform="matrix(0.04999999999999997,0,0,0.04999999999999997,49.99999999999996,0)" xlink:href="#aK"/><use transform="matrix(0.04999999999999997,0,0,0.04999999999999997,59.99999999999995,0)" xlink:href="#az"/><use transform="matrix(0.04999999999999997,0,0,0.04999999999999997,64.99999999999994,0)" xlink:href="#aX"/></g><g id="N"><use transform="matrix(0.04999999999999997,0,0,0.04999999999999997,0,0)" xlink:href="#av"/><use transform="matrix(0.04999999999999997,0,0,0.04999999999999997,9.999999999999993,0)" xlink:href="#ah"/><use transform="matrix(0.04999999999999997,0,0,0.04999999999999997,19.999999999999986,0)" xlink:href="#az"/><use transform="matrix(0.04999999999999997,0,0,0.04999999999999997,24.999999999999982,0)" xlink:href="#aA"/><use transform="matrix(0.04999999999999997,0,0,0.04999999999999997,34.99999999999997,0)" xlink:href="#ah"/><use transform="matrix(0.04999999999999997,0,0,0.04999999999999997,44.999999999999964,0)" xlink:href="#az"/><use transform="matrix(0.04999999999999997,0,0,0.04999999999999997,49.99999999999996,0)" xlink:href="#ah"/><use transform="matrix(0.04999999999999997,0,0,0.04999999999999997,59.99999999999995,0)" xlink:href="#az"/><use transform="matrix(0.04999999999999997,0,0,0.04999999999999997,64.99999999999994,0)" xlink:href="#aX"/></g><path fill="#3a414a" d="M101-251c68 0 85 55 85 127S166 4 100 4C33 4 14-52 14-124c0-73 17-127 87-127zm-1 229c47 0 54-49 54-102s-4-102-53-102c-51 0-55 48-55 102 0 53 5 102 54 102" id="aY"/><use transform="matrix(0.06172839506172839,0,0,0.06172839506172839,0,0)" xlink:href="#aY" id="O"/><g id="P"><use transform="matrix(0.04999999999999997,0,0,0.04999999999999997,0,0)" xlink:href="#aS"/><use transform="matrix(0.04999999999999997,0,0,0.04999999999999997,8.999999999999995,0)" xlink:href="#al"/><use transform="matrix(0.04999999999999997,0,0,0.04999999999999997,13.999999999999991,0)" xlink:href="#aI"/><use transform="matrix(0.04999999999999997,0,0,0.04999999999999997,17.94999999999999,0)" xlink:href="#aR"/><use transform="matrix(0.04999999999999997,0,0,0.04999999999999997,23.899999999999984,0)" xlink:href="#ah"/><use transform="matrix(0.04999999999999997,0,0,0.04999999999999997,33.89999999999998,0)" xlink:href="#az"/><use transform="matrix(0.04999999999999997,0,0,0.04999999999999997,38.89999999999998,0)" xlink:href="#aF"/><use transform="matrix(0.04999999999999997,0,0,0.04999999999999997,48.89999999999997,0)" xlink:href="#ak"/><use transform="matrix(0.04999999999999997,0,0,0.04999999999999997,58.89999999999996,0)" xlink:href="#ao"/><use transform="matrix(0.04999999999999997,0,0,0.04999999999999997,64.84999999999997,0)" xlink:href="#aS"/><use transform="matrix(0.04999999999999997,0,0,0.04999999999999997,73.84999999999997,0)" xlink:href="#aR"/><use transform="matrix(0.04999999999999997,0,0,0.04999999999999997,79.79999999999997,0)" xlink:href="#an"/><use transform="matrix(0.04999999999999997,0,0,0.04999999999999997,89.79999999999995,0)" xlink:href="#aS"/><use transform="matrix(0.04999999999999997,0,0,0.04999999999999997,98.79999999999995,0)" xlink:href="#aT"/><use transform="matrix(0.04999999999999997,0,0,0.04999999999999997,108.79999999999995,0)" xlink:href="#aR"/><use transform="matrix(0.04999999999999997,0,0,0.04999999999999997,114.74999999999994,0)" xlink:href="#aU"/><use transform="matrix(0.04999999999999997,0,0,0.04999999999999997,118.69999999999997,0)" xlink:href="#aF"/><use transform="matrix(0.04999999999999997,0,0,0.04999999999999997,128.69999999999996,0)" xlink:href="#aG"/><use transform="matrix(0.04999999999999997,0,0,0.04999999999999997,133.69999999999996,0)" xlink:href="#ao"/><use transform="matrix(0.04999999999999997,0,0,0.04999999999999997,139.64999999999995,0)" xlink:href="#aD"/></g><g id="Q"><use transform="matrix(0.04999999999999997,0,0,0.04999999999999997,0,0)" xlink:href="#aS"/><use transform="matrix(0.04999999999999997,0,0,0.04999999999999997,8.999999999999995,0)" xlink:href="#al"/><use transform="matrix(0.04999999999999997,0,0,0.04999999999999997,13.999999999999991,0)" xlink:href="#aI"/><use transform="matrix(0.04999999999999997,0,0,0.04999999999999997,17.94999999999999,0)" xlink:href="#aR"/><use transform="matrix(0.04999999999999997,0,0,0.04999999999999997,23.899999999999984,0)" xlink:href="#ah"/><use transform="matrix(0.04999999999999997,0,0,0.04999999999999997,33.89999999999998,0)" xlink:href="#aR"/><use transform="matrix(0.04999999999999997,0,0,0.04999999999999997,39.84999999999997,0)" xlink:href="#an"/><use transform="matrix(0.04999999999999997,0,0,0.04999999999999997,49.849999999999966,0)" xlink:href="#aV"/><use transform="matrix(0.04999999999999997,0,0,0.04999999999999997,59.84999999999996,0)" xlink:href="#aH"/><use transform="matrix(0.04999999999999997,0,0,0.04999999999999997,74.79999999999995,0)" xlink:href="#az"/><use transform="matrix(0.04999999999999997,0,0,0.04999999999999997,79.79999999999995,0)" xlink:href="#aF"/><use transform="matrix(0.04999999999999997,0,0,0.04999999999999997,89.79999999999995,0)" xlink:href="#ak"/><use transform="matrix(0.04999999999999997,0,0,0.04999999999999997,99.79999999999995,0)" xlink:href="#ao"/><use transform="matrix(0.04999999999999997,0,0,0.04999999999999997,105.74999999999996,0)" xlink:href="#aS"/><use transform="matrix(0.04999999999999997,0,0,0.04999999999999997,114.74999999999994,0)" xlink:href="#aR"/><use transform="matrix(0.04999999999999997,0,0,0.04999999999999997,120.69999999999997,0)" xlink:href="#an"/><use transform="matrix(0.04999999999999997,0,0,0.04999999999999997,130.69999999999996,0)" xlink:href="#aS"/><use transform="matrix(0.04999999999999997,0,0,0.04999999999999997,139.69999999999996,0)" xlink:href="#aT"/><use transform="matrix(0.04999999999999997,0,0,0.04999999999999997,149.69999999999996,0)" xlink:href="#aR"/><use transform="matrix(0.04999999999999997,0,0,0.04999999999999997,155.64999999999995,0)" xlink:href="#aU"/><use transform="matrix(0.04999999999999997,0,0,0.04999999999999997,159.59999999999994,0)" xlink:href="#aF"/><use transform="matrix(0.04999999999999997,0,0,0.04999999999999997,169.59999999999994,0)" xlink:href="#aG"/><use transform="matrix(0.04999999999999997,0,0,0.04999999999999997,174.59999999999994,0)" xlink:href="#ao"/><use transform="matrix(0.04999999999999997,0,0,0.04999999999999997,180.54999999999993,0)" xlink:href="#aD"/></g><g id="R"><use transform="matrix(0.04999999999999997,0,0,0.04999999999999997,0,0)" xlink:href="#av"/><use transform="matrix(0.04999999999999997,0,0,0.04999999999999997,9.999999999999993,0)" xlink:href="#ah"/><use transform="matrix(0.04999999999999997,0,0,0.04999999999999997,19.999999999999986,0)" xlink:href="#az"/><use transform="matrix(0.04999999999999997,0,0,0.04999999999999997,24.999999999999982,0)" xlink:href="#aA"/><use transform="matrix(0.04999999999999997,0,0,0.04999999999999997,34.99999999999997,0)" xlink:href="#ah"/><use transform="matrix(0.04999999999999997,0,0,0.04999999999999997,44.999999999999964,0)" xlink:href="#az"/><use transform="matrix(0.04999999999999997,0,0,0.04999999999999997,49.99999999999996,0)" xlink:href="#aK"/><use transform="matrix(0.04999999999999997,0,0,0.04999999999999997,59.99999999999995,0)" xlink:href="#az"/><use transform="matrix(0.04999999999999997,0,0,0.04999999999999997,64.99999999999994,0)" xlink:href="#aw"/></g><g id="S"><use transform="matrix(0.04999999999999997,0,0,0.04999999999999997,0,0)" xlink:href="#av"/><use transform="matrix(0.04999999999999997,0,0,0.04999999999999997,9.999999999999993,0)" xlink:href="#ah"/><use transform="matrix(0.04999999999999997,0,0,0.04999999999999997,19.999999999999986,0)" xlink:href="#az"/><use transform="matrix(0.04999999999999997,0,0,0.04999999999999997,24.999999999999982,0)" xlink:href="#aA"/><use transform="matrix(0.04999999999999997,0,0,0.04999999999999997,34.99999999999997,0)" xlink:href="#ah"/><use transform="matrix(0.04999999999999997,0,0,0.04999999999999997,44.999999999999964,0)" xlink:href="#az"/><use transform="matrix(0.04999999999999997,0,0,0.04999999999999997,49.99999999999996,0)" xlink:href="#ah"/><use transform="matrix(0.04999999999999997,0,0,0.04999999999999997,59.99999999999995,0)" xlink:href="#az"/><use transform="matrix(0.04999999999999997,0,0,0.04999999999999997,64.99999999999994,0)" xlink:href="#aw"/></g></defs></g></svg>
